<svg width="48" height="49" viewBox="0 0 48 49" fill="none" xmlns="http://www.w3.org/2000/svg">
<path fill-rule="evenodd" clip-rule="evenodd" d="M4.99082 2.21448C2.23231 2.21448 -0.00390625 4.45069 -0.00390625 7.2092V33.2198C-0.00390625 35.9783 2.23231 38.2145 4.99082 38.2145H18.7967L16.9617 43.3416H13.7098C12.2897 43.3416 11.1384 44.4929 11.1384 45.9131C11.1384 47.3332 12.2897 48.4845 13.7098 48.4845H34.2812C35.7014 48.4845 36.8527 47.3332 36.8527 45.9131C36.8527 44.4929 35.7014 43.3416 34.2812 43.3416H31.0335L29.1985 38.2145H43.0014C45.7599 38.2145 47.9961 35.9783 47.9961 33.2198V7.2092C47.9961 4.45069 45.7599 2.21448 43.0014 2.21448H4.99082ZM27.3924 10.0603C28.7397 10.5094 29.4678 11.9656 29.0187 13.3129L23.8759 28.7415C23.4268 30.0888 21.9705 30.8169 20.6232 30.3678C19.2759 29.9187 18.5478 28.4624 18.9969 27.1152L24.1398 11.6866C24.5889 10.3393 26.0451 9.61117 27.3924 10.0603ZM17.1098 17.8808C18.1881 16.9566 18.313 15.3333 17.3888 14.255C16.4645 13.1767 14.8412 13.0518 13.7629 13.9761L7.76292 19.1189C7.18824 19.6115 6.85976 20.3323 6.86502 21.0892C6.87027 21.846 7.20873 22.5622 7.7902 23.0467L12.9331 27.3324C14.024 28.2416 15.6455 28.0942 16.5547 27.0032C17.4638 25.9122 17.3164 24.2908 16.2254 23.3816L13.4199 21.0436L17.1098 17.8808ZM35.0842 14.8102C33.9932 13.901 32.3718 14.0484 31.4626 15.1394C30.5535 16.2304 30.7009 17.8519 31.7919 18.7611L34.5974 21.099L30.9074 24.2618C29.8292 25.1861 29.7043 26.8094 30.6285 27.8877C31.5528 28.9659 33.1761 29.0908 34.2544 28.1666L40.2544 23.0237C40.8291 22.5311 41.1575 21.8104 41.1523 21.0535C41.147 20.2966 40.8086 19.5805 40.2271 19.0959L35.0842 14.8102Z" fill="black"/>
</svg>
