<svg width="568" height="282" viewBox="0 0 568 282" fill="none" xmlns="http://www.w3.org/2000/svg">
<rect width="600" height="1033.7" rx="24.4565" fill="#F5F5F5"/>
<mask id="path-2-inside-1_874_5772" fill="white">
<path d="M0 0H600V84.1739H0V0Z"/>
</mask>
<path d="M600 84.1739V85.8043H601.63V84.1739H600ZM598.37 0V84.1739H601.63V0H598.37ZM600 82.5435H0V85.8043H600V82.5435Z" fill="#EAEBF0" mask="url(#path-2-inside-1_874_5772)"/>
<path d="M30.3956 51.087H26.7271L33.4063 32.1146H37.6492L44.3376 51.087H40.6692L35.6018 36.0055H35.4536L30.3956 51.087ZM30.516 43.6481H40.5209V46.4087H30.516V43.6481ZM50.2734 32.1146V51.087H46.8366V32.1146H50.2734ZM70.7766 37.3302C70.6902 36.5211 70.3258 35.8912 69.6835 35.4404C69.0474 34.9895 68.2198 34.7641 67.2008 34.7641C66.4844 34.7641 65.8699 34.8722 65.3573 35.0883C64.8447 35.3045 64.4525 35.5978 64.1808 35.9684C63.909 36.339 63.7701 36.762 63.7639 37.2375C63.7639 37.6328 63.8535 37.9756 64.0326 38.2658C64.2178 38.5561 64.468 38.8031 64.7829 39.0069C65.0979 39.2046 65.4468 39.3713 65.8297 39.5072C66.2126 39.6431 66.5986 39.7573 66.9877 39.8499L68.7664 40.2946C69.4828 40.4614 70.1714 40.6868 70.8322 40.9709C71.4992 41.255 72.0952 41.6132 72.6201 42.0455C73.1513 42.4778 73.5712 42.9996 73.88 43.6111C74.1888 44.2225 74.3432 44.9389 74.3432 45.7603C74.3432 46.8719 74.0591 47.8508 73.4909 48.6969C72.9227 49.5368 72.1014 50.1946 71.0267 50.6701C69.9583 51.1395 68.6645 51.3742 67.1452 51.3742C65.6692 51.3742 64.3877 51.1456 63.3007 50.6886C62.2199 50.2316 61.3738 49.5646 60.7624 48.6876C60.1572 47.8107 59.8299 46.7422 59.7805 45.4824H63.1618C63.2112 46.1432 63.415 46.6928 63.7732 47.1313C64.1314 47.5698 64.5976 47.8971 65.172 48.1133C65.7525 48.3294 66.401 48.4375 67.1174 48.4375C67.8647 48.4375 68.5193 48.3264 69.0813 48.104C69.6495 47.8755 70.0942 47.5605 70.4153 47.1591C70.7365 46.7515 70.9001 46.276 70.9063 45.7325C70.9001 45.2384 70.755 44.8308 70.4709 44.5097C70.1868 44.1823 69.7885 43.9106 69.2759 43.6944C68.7695 43.4721 68.1766 43.2745 67.4972 43.1015L65.3388 42.5457C63.7763 42.1443 62.5411 41.536 61.6332 40.7207C60.7315 39.8994 60.2807 38.8093 60.2807 37.4506C60.2807 36.3328 60.5833 35.3539 61.1886 34.514C61.8 33.6741 62.6306 33.0225 63.6805 32.5593C64.7304 32.0899 65.9193 31.8553 67.2471 31.8553C68.5934 31.8553 69.773 32.0899 70.7859 32.5593C71.8049 33.0225 72.6047 33.6679 73.1852 34.4954C73.7658 35.3168 74.0653 36.2618 74.0838 37.3302H70.7766ZM80.3161 46.6218L80.3068 42.5735H80.8441L85.9577 36.8577H89.8763L83.5862 43.8612H82.8914L80.3161 46.6218ZM77.259 51.087V32.1146H80.6125V51.087H77.259ZM86.1893 51.087L81.5574 44.6116L83.8178 42.2493L90.2006 51.087H86.1893ZM92.1112 51.087V36.8577H95.4647V51.087H92.1112ZM93.7973 34.8382C93.2661 34.8382 92.8091 34.6622 92.4262 34.3102C92.0433 33.952 91.8518 33.5227 91.8518 33.0225C91.8518 32.5161 92.0433 32.0869 92.4262 31.7348C92.8091 31.3766 93.2661 31.1975 93.7973 31.1975C94.3346 31.1975 94.7916 31.3766 95.1683 31.7348C95.5512 32.0869 95.7427 32.5161 95.7427 33.0225C95.7427 33.5227 95.5512 33.952 95.1683 34.3102C94.7916 34.6622 94.3346 34.8382 93.7973 34.8382ZM102.267 32.1146V51.087H98.9132V32.1146H102.267ZM109.069 32.1146V51.087H105.715V32.1146H109.069ZM118.302 34.9957V32.1146H133.44V34.9957H127.576V51.087H124.166V34.9957H118.302ZM134.732 51.087V36.8577H137.983V39.2293H138.132C138.391 38.4079 138.836 37.7748 139.466 37.3302C140.102 36.8793 140.827 36.6539 141.643 36.6539C141.828 36.6539 142.035 36.6632 142.263 36.6817C142.498 36.6941 142.693 36.7157 142.847 36.7466V39.8314C142.705 39.782 142.479 39.7388 142.171 39.7017C141.868 39.6585 141.575 39.6369 141.291 39.6369C140.679 39.6369 140.13 39.7697 139.642 40.0352C139.16 40.2946 138.78 40.6559 138.502 41.1191C138.224 41.5823 138.085 42.1165 138.085 42.7217V51.087H134.732ZM148.915 51.3742C148.013 51.3742 147.201 51.2136 146.478 50.8924C145.762 50.5651 145.194 50.0834 144.774 49.4473C144.36 48.8112 144.153 48.0268 144.153 47.0943C144.153 46.2914 144.301 45.6275 144.598 45.1025C144.894 44.5776 145.299 44.1576 145.811 43.8427C146.324 43.5277 146.901 43.2899 147.544 43.1293C148.192 42.9626 148.862 42.8422 149.554 42.7681C150.388 42.6816 151.064 42.6044 151.583 42.5365C152.102 42.4623 152.478 42.3512 152.713 42.203C152.954 42.0486 153.074 41.8108 153.074 41.4896V41.4341C153.074 40.7362 152.867 40.1958 152.454 39.8129C152.04 39.43 151.444 39.2385 150.666 39.2385C149.844 39.2385 149.193 39.4176 148.711 39.7758C148.235 40.134 147.914 40.5571 147.748 41.045L144.616 40.6003C144.863 39.7357 145.271 39.0131 145.839 38.4326C146.407 37.8459 147.102 37.4074 147.924 37.1171C148.745 36.8207 149.653 36.6724 150.647 36.6724C151.333 36.6724 152.015 36.7527 152.694 36.9133C153.374 37.0739 153.994 37.3394 154.556 37.71C155.118 38.0744 155.569 38.5715 155.909 39.2015C156.255 39.8314 156.428 40.6188 156.428 41.5638V51.087H153.204V49.1323H153.093C152.889 49.5276 152.602 49.8981 152.231 50.244C151.867 50.5836 151.407 50.8585 150.851 51.0684C150.301 51.2723 149.656 51.3742 148.915 51.3742ZM149.786 48.91C150.459 48.91 151.042 48.7772 151.536 48.5116C152.03 48.2399 152.41 47.8817 152.676 47.437C152.948 46.9924 153.083 46.5076 153.083 45.9826V44.3058C152.978 44.3923 152.799 44.4726 152.546 44.5467C152.299 44.6208 152.021 44.6857 151.712 44.7412C151.404 44.7968 151.098 44.8462 150.795 44.8895C150.493 44.9327 150.23 44.9698 150.008 45.0006C149.508 45.0686 149.06 45.1797 148.665 45.3341C148.269 45.4885 147.957 45.7047 147.729 45.9826C147.5 46.2543 147.386 46.6064 147.386 47.0387C147.386 47.6563 147.612 48.1225 148.062 48.4375C148.513 48.7525 149.088 48.91 149.786 48.91ZM166.007 51.3649C164.586 51.3649 163.366 51.053 162.347 50.4292C161.334 49.8055 160.553 48.9439 160.004 47.8446C159.46 46.7391 159.188 45.4669 159.188 44.0279C159.188 42.5828 159.466 41.3075 160.022 40.202C160.578 39.0903 161.362 38.2257 162.375 37.6081C163.394 36.9843 164.598 36.6724 165.988 36.6724C167.143 36.6724 168.165 36.8855 169.054 37.3117C169.95 37.7316 170.663 38.3276 171.194 39.0996C171.725 39.8654 172.028 40.7609 172.102 41.7861H168.897C168.767 41.1006 168.458 40.5293 167.97 40.0723C167.489 39.6091 166.843 39.3775 166.034 39.3775C165.349 39.3775 164.747 39.5628 164.228 39.9333C163.709 40.2977 163.305 40.8226 163.014 41.5082C162.73 42.1937 162.588 43.0151 162.588 43.9724C162.588 44.942 162.73 45.7757 163.014 46.4736C163.298 47.1653 163.697 47.6995 164.209 48.0762C164.728 48.4468 165.336 48.6321 166.034 48.6321C166.528 48.6321 166.97 48.5394 167.359 48.3541C167.754 48.1627 168.085 47.8879 168.35 47.5297C168.616 47.1715 168.798 46.7361 168.897 46.2235H172.102C172.022 47.2301 171.725 48.1225 171.213 48.9007C170.7 49.6727 170.002 50.2779 169.119 50.7164C168.236 51.1487 167.198 51.3649 166.007 51.3649ZM177.913 46.6218L177.904 42.5735H178.441L183.555 36.8577H187.473L181.183 43.8612H180.488L177.913 46.6218ZM174.856 51.087V32.1146H178.209V51.087H174.856ZM183.786 51.087L179.154 44.6116L181.415 42.2493L187.797 51.087H183.786ZM189.708 51.087V36.8577H193.062V51.087H189.708ZM191.394 34.8382C190.863 34.8382 190.406 34.6622 190.023 34.3102C189.64 33.952 189.449 33.5227 189.449 33.0225C189.449 32.5161 189.64 32.0869 190.023 31.7348C190.406 31.3766 190.863 31.1975 191.394 31.1975C191.931 31.1975 192.388 31.3766 192.765 31.7348C193.148 32.0869 193.339 32.5161 193.339 33.0225C193.339 33.5227 193.148 33.952 192.765 34.3102C192.388 34.6622 191.931 34.8382 191.394 34.8382ZM199.864 42.7495V51.087H196.51V36.8577H199.715V39.2756H199.882C200.209 38.4789 200.731 37.8459 201.448 37.3765C202.17 36.9071 203.063 36.6724 204.125 36.6724C205.107 36.6724 205.962 36.8824 206.691 37.3024C207.426 37.7224 207.994 38.3307 208.396 39.1274C208.803 39.9241 209.004 40.8906 208.998 42.0269V51.087H205.644V42.5457C205.644 41.5946 205.397 40.8504 204.903 40.3131C204.415 39.7758 203.739 39.5072 202.874 39.5072C202.288 39.5072 201.766 39.6369 201.309 39.8963C200.858 40.1495 200.503 40.5169 200.243 40.9987C199.99 41.4804 199.864 42.064 199.864 42.7495ZM218.595 56.7194C217.391 56.7194 216.356 56.5557 215.492 56.2284C214.627 55.9073 213.932 55.4749 213.407 54.9315C212.882 54.388 212.518 53.7858 212.314 53.125L215.334 52.3932C215.47 52.6711 215.668 52.9459 215.927 53.2177C216.186 53.4956 216.535 53.7241 216.974 53.9032C217.418 54.0885 217.977 54.1811 218.651 54.1811C219.602 54.1811 220.389 53.9495 221.013 53.4863C221.637 53.0293 221.948 52.2758 221.948 51.2259V48.5302H221.782C221.609 48.876 221.356 49.2311 221.022 49.5955C220.695 49.9599 220.259 50.2656 219.716 50.5126C219.179 50.7597 218.502 50.8832 217.687 50.8832C216.594 50.8832 215.603 50.6269 214.713 50.1143C213.83 49.5955 213.126 48.8235 212.601 47.7983C212.083 46.7669 211.823 45.4762 211.823 43.926C211.823 42.3635 212.083 41.045 212.601 39.9704C213.126 38.8896 213.833 38.0713 214.723 37.5155C215.612 36.9535 216.603 36.6724 217.696 36.6724C218.53 36.6724 219.216 36.8145 219.753 37.0986C220.296 37.3765 220.729 37.7131 221.05 38.1083C221.371 38.4974 221.615 38.8649 221.782 39.2107H221.967V36.8577H225.274V51.3186C225.274 52.5352 224.984 53.5419 224.403 54.3386C223.823 55.1353 223.029 55.7312 222.023 56.1265C221.016 56.5218 219.873 56.7194 218.595 56.7194ZM218.623 48.2522C219.333 48.2522 219.938 48.0793 220.438 47.7335C220.939 47.3876 221.319 46.8905 221.578 46.242C221.837 45.5935 221.967 44.8154 221.967 43.9075C221.967 43.012 221.837 42.2277 221.578 41.5545C221.325 40.8813 220.948 40.3595 220.448 39.9889C219.954 39.6122 219.345 39.4238 218.623 39.4238C217.875 39.4238 217.252 39.6183 216.751 40.0074C216.251 40.3965 215.875 40.9307 215.621 41.6101C215.368 42.2832 215.241 43.0491 215.241 43.9075C215.241 44.7783 215.368 45.541 215.621 46.1957C215.881 46.8441 216.26 47.3506 216.761 47.7149C217.267 48.0731 217.888 48.2522 218.623 48.2522Z" fill="black"/>
<rect x="26.0859" y="166.304" width="547.826" height="6.52174" rx="3.26087" fill="#C3D3DD"/>
<path d="M26.084 169.565C26.084 166.864 28.2739 164.674 30.9753 164.674H313.04V174.457H30.9753C28.2739 174.457 26.084 172.267 26.084 169.565Z" fill="#231546"/>
<circle cx="317.931" cy="169.565" r="9.78261" fill="#231546"/>
<circle cx="317.932" cy="169.565" r="6.52174" fill="#D99A26"/>
<path d="M34.2381 147.283H28.3834V128.31H34.4975C36.3379 128.31 37.9128 128.69 39.2221 129.45C40.5313 130.203 41.5349 131.287 42.2328 132.701C42.9307 134.109 43.2796 135.795 43.2796 137.759C43.2796 139.736 42.9276 141.437 42.2235 142.864C41.5195 144.284 40.4943 145.377 39.1479 146.143C37.8016 146.903 36.165 147.283 34.2381 147.283ZM30.6808 145.245H34.0899C35.6586 145.245 36.9586 144.942 37.99 144.337C39.0213 143.731 39.7902 142.87 40.2967 141.752C40.8031 140.634 41.0563 139.303 41.0563 137.759C41.0563 136.228 40.8062 134.909 40.3059 133.804C39.8057 132.692 39.0584 131.84 38.0641 131.247C37.0698 130.648 35.8315 130.348 34.3493 130.348H30.6808V145.245ZM46.8369 147.283V133.053H48.9491V135.203H49.0973C49.3567 134.499 49.8261 133.927 50.5054 133.489C51.1848 133.05 51.9506 132.831 52.8028 132.831C52.9634 132.831 53.1641 132.834 53.405 132.84C53.6458 132.846 53.828 132.856 53.9516 132.868V135.091C53.8774 135.073 53.7076 135.045 53.442 135.008C53.1827 134.965 52.9078 134.943 52.6176 134.943C51.9259 134.943 51.3083 135.088 50.7648 135.379C50.2275 135.663 49.8014 136.058 49.4864 136.564C49.1776 137.065 49.0232 137.636 49.0232 138.278V147.283H46.8369ZM56.5431 147.283V133.053H58.7294V147.283H56.5431ZM57.6548 130.682C57.2286 130.682 56.8612 130.537 56.5524 130.246C56.2498 129.956 56.0984 129.607 56.0984 129.2C56.0984 128.792 56.2498 128.443 56.5524 128.153C56.8612 127.863 57.2286 127.717 57.6548 127.717C58.0809 127.717 58.4453 127.863 58.7479 128.153C59.0567 128.443 59.2111 128.792 59.2111 129.2C59.2111 129.607 59.0567 129.956 58.7479 130.246C58.4453 130.537 58.0809 130.682 57.6548 130.682ZM63.0301 147.283V128.31H65.2164V135.314H65.4016C65.5622 135.067 65.7846 134.752 66.0686 134.369C66.3589 133.98 66.7727 133.634 67.31 133.331C67.8535 133.022 68.5884 132.868 69.5148 132.868C70.7129 132.868 71.769 133.168 72.683 133.767C73.5971 134.366 74.3104 135.215 74.823 136.314C75.3356 137.414 75.5919 138.71 75.5919 140.205C75.5919 141.712 75.3356 143.018 74.823 144.124C74.3104 145.223 73.6001 146.075 72.6923 146.68C71.7844 147.28 70.7376 147.579 69.5518 147.579C68.6378 147.579 67.906 147.428 67.3563 147.125C66.8067 146.816 66.3836 146.467 66.0872 146.078C65.7907 145.683 65.5622 145.356 65.4016 145.096H65.1423V147.283H63.0301ZM65.1793 140.168C65.1793 141.243 65.3368 142.191 65.6518 143.012C65.9667 143.827 66.4268 144.466 67.0321 144.93C67.6373 145.387 68.3784 145.615 69.2554 145.615C70.1694 145.615 70.9322 145.374 71.5436 144.893C72.1612 144.405 72.6244 143.75 72.9331 142.929C73.2481 142.101 73.4056 141.181 73.4056 140.168C73.4056 139.168 73.2512 138.266 72.9424 137.463C72.6398 136.654 72.1797 136.015 71.5621 135.545C70.9507 135.07 70.1818 134.832 69.2554 134.832C68.3661 134.832 67.6188 135.057 67.0136 135.508C66.4083 135.953 65.9513 136.577 65.6425 137.38C65.3337 138.176 65.1793 139.106 65.1793 140.168ZM79.2326 147.283V128.31H81.4188V135.314H81.6041C81.7647 135.067 81.987 134.752 82.2711 134.369C82.5614 133.98 82.9751 133.634 83.5124 133.331C84.0559 133.022 84.7909 132.868 85.7172 132.868C86.9154 132.868 87.9714 133.168 88.8855 133.767C89.7995 134.366 90.5128 135.215 91.0254 136.314C91.538 137.414 91.7943 138.71 91.7943 140.205C91.7943 141.712 91.538 143.018 91.0254 144.124C90.5128 145.223 89.8026 146.075 88.8947 146.68C87.9869 147.28 86.9401 147.579 85.7543 147.579C84.8403 147.579 84.1084 147.428 83.5588 147.125C83.0091 146.816 82.5861 146.467 82.2896 146.078C81.9932 145.683 81.7647 145.356 81.6041 145.096H81.3447V147.283H79.2326ZM81.3818 140.168C81.3818 141.243 81.5392 142.191 81.8542 143.012C82.1692 143.827 82.6293 144.466 83.2345 144.93C83.8398 145.387 84.5809 145.615 85.4579 145.615C86.3719 145.615 87.1346 145.374 87.746 144.893C88.3636 144.405 88.8268 143.75 89.1356 142.929C89.4506 142.101 89.608 141.181 89.608 140.168C89.608 139.168 89.4537 138.266 89.1449 137.463C88.8422 136.654 88.3821 136.015 87.7645 135.545C87.1531 135.07 86.3842 134.832 85.4579 134.832C84.5685 134.832 83.8212 135.057 83.216 135.508C82.6108 135.953 82.1538 136.577 81.845 137.38C81.5362 138.176 81.3818 139.106 81.3818 140.168ZM97.3248 128.31V147.283H95.1386V128.31H97.3248ZM101.329 147.283V133.053H103.515V147.283H101.329ZM102.441 130.682C102.015 130.682 101.647 130.537 101.338 130.246C101.036 129.956 100.884 129.607 100.884 129.2C100.884 128.792 101.036 128.443 101.338 128.153C101.647 127.863 102.015 127.717 102.441 127.717C102.867 127.717 103.231 127.863 103.534 128.153C103.843 128.443 103.997 128.792 103.997 129.2C103.997 129.607 103.843 129.956 103.534 130.246C103.231 130.537 102.867 130.682 102.441 130.682ZM109.706 138.723V147.283H107.52V133.053H109.632V135.277H109.817C110.151 134.554 110.657 133.974 111.336 133.535C112.016 133.09 112.893 132.868 113.967 132.868C114.931 132.868 115.774 133.066 116.496 133.461C117.219 133.85 117.781 134.443 118.182 135.24C118.584 136.03 118.784 137.031 118.784 138.241V147.283H116.598V138.389C116.598 137.272 116.308 136.401 115.727 135.777C115.147 135.147 114.35 134.832 113.337 134.832C112.639 134.832 112.016 134.983 111.466 135.286C110.923 135.589 110.493 136.03 110.178 136.611C109.863 137.191 109.706 137.895 109.706 138.723ZM128.523 152.915C127.467 152.915 126.559 152.779 125.8 152.507C125.04 152.242 124.407 151.89 123.9 151.451C123.4 151.019 123.002 150.556 122.705 150.062L124.447 148.839C124.645 149.098 124.895 149.395 125.197 149.728C125.5 150.068 125.914 150.361 126.439 150.608C126.97 150.862 127.665 150.988 128.523 150.988C129.672 150.988 130.62 150.71 131.367 150.154C132.114 149.599 132.488 148.728 132.488 147.542V144.652H132.303C132.142 144.911 131.914 145.232 131.617 145.615C131.327 145.992 130.907 146.328 130.357 146.625C129.814 146.915 129.079 147.06 128.153 147.06C127.004 147.06 125.972 146.789 125.058 146.245C124.151 145.702 123.431 144.911 122.9 143.874C122.375 142.836 122.113 141.576 122.113 140.094C122.113 138.636 122.369 137.367 122.881 136.286C123.394 135.199 124.107 134.36 125.021 133.767C125.935 133.168 126.991 132.868 128.19 132.868C129.116 132.868 129.851 133.022 130.394 133.331C130.944 133.634 131.364 133.98 131.654 134.369C131.951 134.752 132.179 135.067 132.34 135.314H132.562V133.053H134.674V147.69C134.674 148.913 134.396 149.907 133.841 150.673C133.291 151.445 132.55 152.01 131.617 152.368C130.691 152.733 129.659 152.915 128.523 152.915ZM128.449 145.096C129.326 145.096 130.067 144.896 130.672 144.494C131.278 144.093 131.738 143.515 132.053 142.762C132.368 142.008 132.525 141.107 132.525 140.057C132.525 139.032 132.371 138.127 132.062 137.343C131.753 136.558 131.296 135.944 130.691 135.499C130.086 135.054 129.338 134.832 128.449 134.832C127.523 134.832 126.751 135.067 126.133 135.536C125.522 136.005 125.062 136.635 124.753 137.426C124.45 138.216 124.299 139.093 124.299 140.057C124.299 141.045 124.453 141.919 124.762 142.678C125.077 143.432 125.54 144.025 126.152 144.457C126.769 144.883 127.535 145.096 128.449 145.096Z" fill="#231546"/>
<path d="M539.181 144.738C538.227 144.738 537.384 144.569 536.652 144.231C535.925 143.888 535.357 143.418 534.95 142.82C534.542 142.218 534.341 141.533 534.345 140.764C534.341 140.162 534.459 139.606 534.7 139.096C534.941 138.582 535.269 138.154 535.686 137.811C536.108 137.464 536.578 137.244 537.097 137.151V137.068C536.416 136.892 535.874 136.509 535.471 135.921C535.068 135.328 534.869 134.654 534.873 133.899C534.869 133.177 535.052 132.531 535.422 131.961C535.793 131.391 536.302 130.942 536.951 130.613C537.604 130.284 538.347 130.12 539.181 130.12C540.006 130.12 540.742 130.284 541.391 130.613C542.039 130.942 542.549 131.391 542.919 131.961C543.294 132.531 543.484 133.177 543.489 133.899C543.484 134.654 543.278 135.328 542.87 135.921C542.467 136.509 541.933 136.892 541.266 137.068V137.151C541.78 137.244 542.243 137.464 542.655 137.811C543.067 138.154 543.396 138.582 543.642 139.096C543.887 139.606 544.012 140.162 544.017 140.764C544.012 141.533 543.804 142.218 543.392 142.82C542.984 143.418 542.417 143.888 541.689 144.231C540.967 144.569 540.131 144.738 539.181 144.738ZM539.181 143.209C539.825 143.209 540.381 143.105 540.849 142.897C541.316 142.688 541.678 142.394 541.933 142.014C542.187 141.635 542.317 141.19 542.322 140.68C542.317 140.143 542.178 139.668 541.905 139.256C541.631 138.844 541.259 138.52 540.786 138.283C540.318 138.047 539.783 137.929 539.181 137.929C538.574 137.929 538.032 138.047 537.555 138.283C537.083 138.52 536.71 138.844 536.437 139.256C536.168 139.668 536.036 140.143 536.041 140.68C536.036 141.19 536.159 141.635 536.409 142.014C536.664 142.394 537.027 142.688 537.5 142.897C537.972 143.105 538.533 143.209 539.181 143.209ZM539.181 136.456C539.691 136.456 540.142 136.354 540.536 136.15C540.934 135.947 541.247 135.662 541.474 135.296C541.701 134.93 541.817 134.501 541.821 134.011C541.817 133.529 541.703 133.11 541.481 132.753C541.259 132.392 540.951 132.114 540.557 131.919C540.163 131.72 539.705 131.62 539.181 131.62C538.648 131.62 538.183 131.72 537.785 131.919C537.386 132.114 537.078 132.392 536.861 132.753C536.643 133.11 536.536 133.529 536.541 134.011C536.536 134.501 536.645 134.93 536.868 135.296C537.094 135.662 537.407 135.947 537.805 136.15C538.204 136.354 538.662 136.456 539.181 136.456ZM551.321 144.738C550.274 144.738 549.382 144.453 548.646 143.883C547.909 143.309 547.347 142.478 546.958 141.389C546.568 140.296 546.374 138.976 546.374 137.429C546.374 135.891 546.568 134.578 546.958 133.489C547.351 132.396 547.916 131.563 548.653 130.988C549.394 130.409 550.283 130.12 551.321 130.12C552.358 130.12 553.245 130.409 553.982 130.988C554.723 131.563 555.288 132.396 555.677 133.489C556.071 134.578 556.268 135.891 556.268 137.429C556.268 138.976 556.073 140.296 555.684 141.389C555.295 142.478 554.732 143.309 553.996 143.883C553.259 144.453 552.368 144.738 551.321 144.738ZM551.321 143.209C552.358 143.209 553.164 142.709 553.739 141.709C554.313 140.708 554.6 139.282 554.6 137.429C554.6 136.197 554.468 135.148 554.204 134.281C553.945 133.415 553.57 132.755 553.079 132.301C552.592 131.847 552.006 131.62 551.321 131.62C550.293 131.62 549.489 132.128 548.91 133.142C548.331 134.152 548.041 135.581 548.041 137.429C548.041 138.661 548.171 139.708 548.431 140.569C548.69 141.431 549.063 142.086 549.549 142.536C550.04 142.985 550.631 143.209 551.321 143.209ZM566.161 141.876V141.125C566.161 140.606 566.268 140.132 566.481 139.701C566.699 139.265 567.014 138.918 567.426 138.659C567.843 138.395 568.348 138.263 568.941 138.263C569.543 138.263 570.048 138.395 570.455 138.659C570.863 138.918 571.171 139.265 571.379 139.701C571.588 140.132 571.692 140.606 571.692 141.125V141.876C571.692 142.394 571.585 142.871 571.372 143.307C571.164 143.738 570.854 144.085 570.441 144.349C570.034 144.608 569.534 144.738 568.941 144.738C568.338 144.738 567.831 144.608 567.419 144.349C567.007 144.085 566.694 143.738 566.481 143.307C566.268 142.871 566.161 142.394 566.161 141.876ZM567.579 141.125V141.876C567.579 142.306 567.681 142.693 567.885 143.036C568.088 143.374 568.44 143.543 568.941 143.543C569.427 143.543 569.77 143.374 569.969 143.036C570.173 142.693 570.275 142.306 570.275 141.876V141.125C570.275 140.694 570.177 140.31 569.983 139.972C569.788 139.629 569.441 139.458 568.941 139.458C568.454 139.458 568.105 139.629 567.892 139.972C567.683 140.31 567.579 140.694 567.579 141.125ZM559.075 133.733V132.982C559.075 132.463 559.181 131.989 559.394 131.558C559.612 131.123 559.927 130.775 560.339 130.516C560.756 130.252 561.261 130.12 561.854 130.12C562.456 130.12 562.961 130.252 563.368 130.516C563.776 130.775 564.084 131.123 564.293 131.558C564.501 131.989 564.605 132.463 564.605 132.982V133.733C564.605 134.251 564.499 134.728 564.286 135.164C564.077 135.595 563.767 135.942 563.355 136.206C562.947 136.465 562.447 136.595 561.854 136.595C561.252 136.595 560.744 136.465 560.332 136.206C559.92 135.942 559.607 135.595 559.394 135.164C559.181 134.728 559.075 134.251 559.075 133.733ZM560.492 132.982V133.733C560.492 134.163 560.594 134.55 560.798 134.893C561.002 135.231 561.354 135.4 561.854 135.4C562.34 135.4 562.683 135.231 562.882 134.893C563.086 134.55 563.188 134.163 563.188 133.733V132.982C563.188 132.551 563.091 132.167 562.896 131.829C562.701 131.486 562.354 131.315 561.854 131.315C561.367 131.315 561.018 131.486 560.805 131.829C560.596 132.167 560.492 132.551 560.492 132.982ZM559.603 144.543L569.385 130.314H570.969L561.187 144.543H559.603Z" fill="#231546"/>
<rect x="26.0859" y="255.978" width="547.826" height="6.52174" rx="3.26087" fill="#C3D3DD"/>
<path d="M26.084 259.239C26.084 256.538 28.2739 254.348 30.9753 254.348H313.04V264.13H30.9753C28.2739 264.13 26.084 261.941 26.084 259.239Z" fill="#231546"/>
<circle cx="317.931" cy="259.239" r="9.78261" fill="#231546"/>
<circle cx="317.932" cy="259.239" r="6.52174" fill="#D99A26"/>
<path d="M27.3458 220.022V217.984H41.5751V220.022H35.6092V236.957H33.3117V220.022H27.3458ZM47.0755 237.29C46.1738 237.29 45.3555 237.12 44.6206 236.781C43.8856 236.435 43.302 235.938 42.8697 235.289C42.4374 234.634 42.2212 233.844 42.2212 232.917C42.2212 232.102 42.3818 231.441 42.7029 230.935C43.0241 230.422 43.4533 230.021 43.9906 229.731C44.5279 229.44 45.1208 229.224 45.7693 229.082C46.4239 228.934 47.0816 228.817 47.7425 228.73C48.6071 228.619 49.3081 228.536 49.8454 228.48C50.3888 228.418 50.7841 228.316 51.0311 228.174C51.2843 228.032 51.4109 227.785 51.4109 227.433V227.359C51.4109 226.445 51.1608 225.735 50.6606 225.229C50.1665 224.722 49.4161 224.469 48.4095 224.469C47.3657 224.469 46.5474 224.697 45.9545 225.154C45.3617 225.611 44.9448 226.099 44.7039 226.618L42.6288 225.877C42.9994 225.012 43.4935 224.339 44.111 223.857C44.7348 223.37 45.4142 223.03 46.1491 222.838C46.8902 222.641 47.6189 222.542 48.3354 222.542C48.7924 222.542 49.3173 222.598 49.9102 222.709C50.5093 222.814 51.0867 223.033 51.6425 223.366C52.2045 223.7 52.6708 224.203 53.0414 224.876C53.4119 225.55 53.5972 226.451 53.5972 227.582V236.957H51.4109V235.03H51.2998C51.1516 235.338 50.9045 235.669 50.5587 236.021C50.2128 236.373 49.7527 236.672 49.1784 236.919C48.604 237.167 47.903 237.29 47.0755 237.29ZM47.409 235.326C48.2736 235.326 49.0023 235.156 49.5952 234.817C50.1943 234.477 50.6451 234.038 50.9478 233.501C51.2565 232.964 51.4109 232.399 51.4109 231.806V229.805C51.3183 229.916 51.1145 230.018 50.7995 230.111C50.4907 230.197 50.1325 230.274 49.7249 230.342C49.3235 230.404 48.9313 230.459 48.5484 230.509C48.1717 230.552 47.866 230.589 47.6313 230.62C47.0631 230.694 46.532 230.815 46.0379 230.981C45.55 231.142 45.1548 231.386 44.8521 231.713C44.5557 232.034 44.4075 232.473 44.4075 233.029C44.4075 233.788 44.6885 234.363 45.2505 234.752C45.8187 235.135 46.5382 235.326 47.409 235.326ZM63.3682 237.253C62.0342 237.253 60.8855 236.938 59.9221 236.308C58.9587 235.678 58.2175 234.81 57.6988 233.705C57.18 232.599 56.9206 231.336 56.9206 229.916C56.9206 228.471 57.1862 227.196 57.7173 226.09C58.2546 224.978 59.0019 224.111 59.9591 223.487C60.9226 222.857 62.0466 222.542 63.3312 222.542C64.3317 222.542 65.2334 222.727 66.0362 223.098C66.8391 223.468 67.4968 223.987 68.0094 224.654C68.522 225.321 68.8401 226.099 68.9636 226.989H66.7773C66.6106 226.34 66.24 225.766 65.6657 225.266C65.0975 224.759 64.3317 224.506 63.3682 224.506C62.516 224.506 61.7687 224.728 61.1264 225.173C60.4903 225.611 59.9931 226.232 59.6349 227.035C59.2829 227.832 59.1069 228.767 59.1069 229.842C59.1069 230.941 59.2798 231.898 59.6256 232.714C59.9777 233.529 60.4717 234.162 61.1079 234.613C61.7502 235.064 62.5036 235.289 63.3682 235.289C63.9364 235.289 64.4521 235.19 64.9153 234.993C65.3785 234.795 65.7707 234.511 66.0918 234.14C66.413 233.77 66.6415 233.325 66.7773 232.806H68.9636C68.8401 233.646 68.5344 234.403 68.0465 235.076C67.5648 235.743 66.9255 236.274 66.1289 236.669C65.3383 237.058 64.4181 237.253 63.3682 237.253ZM74.1977 231.769L74.1606 229.064H74.6053L80.8306 222.727H83.5356L76.9027 229.434H76.7174L74.1977 231.769ZM72.1596 236.957V217.984H74.3459V236.957H72.1596ZM81.2011 236.957L75.6428 229.916L77.1991 228.397L83.9803 236.957H81.2011ZM88.5358 217.984V236.957H86.3495V217.984H88.5358ZM92.5401 236.957V222.727H94.7263V236.957H92.5401ZM93.6517 220.356C93.2256 220.356 92.8581 220.211 92.5493 219.92C92.2467 219.63 92.0954 219.281 92.0954 218.874C92.0954 218.466 92.2467 218.117 92.5493 217.827C92.8581 217.536 93.2256 217.391 93.6517 217.391C94.0778 217.391 94.4422 217.536 94.7448 217.827C95.0536 218.117 95.208 218.466 95.208 218.874C95.208 219.281 95.0536 219.63 94.7448 219.92C94.4422 220.211 94.0778 220.356 93.6517 220.356ZM100.917 228.397V236.957H98.7306V222.727H100.843V224.951H101.028C101.362 224.228 101.868 223.647 102.547 223.209C103.227 222.764 104.104 222.542 105.178 222.542C106.142 222.542 106.985 222.74 107.707 223.135C108.43 223.524 108.992 224.117 109.393 224.914C109.795 225.704 109.995 226.705 109.995 227.915V236.957H107.809V228.063C107.809 226.945 107.519 226.075 106.938 225.451C106.358 224.821 105.561 224.506 104.548 224.506C103.85 224.506 103.227 224.657 102.677 224.96C102.134 225.262 101.704 225.704 101.389 226.285C101.074 226.865 100.917 227.569 100.917 228.397ZM119.734 242.589C118.678 242.589 117.77 242.453 117.01 242.181C116.251 241.916 115.618 241.564 115.111 241.125C114.611 240.693 114.213 240.23 113.916 239.736L115.658 238.513C115.856 238.772 116.106 239.069 116.408 239.402C116.711 239.742 117.125 240.035 117.65 240.282C118.181 240.535 118.876 240.662 119.734 240.662C120.883 240.662 121.831 240.384 122.578 239.828C123.325 239.272 123.699 238.402 123.699 237.216V234.326H123.514C123.353 234.585 123.125 234.906 122.828 235.289C122.538 235.666 122.118 236.002 121.568 236.299C121.025 236.589 120.29 236.734 119.363 236.734C118.215 236.734 117.183 236.462 116.269 235.919C115.362 235.376 114.642 234.585 114.111 233.547C113.586 232.51 113.323 231.25 113.323 229.768C113.323 228.31 113.58 227.041 114.092 225.96C114.605 224.873 115.318 224.033 116.232 223.441C117.146 222.842 118.202 222.542 119.401 222.542C120.327 222.542 121.062 222.696 121.605 223.005C122.155 223.308 122.575 223.654 122.865 224.043C123.162 224.426 123.39 224.741 123.551 224.988H123.773V222.727H125.885V237.364C125.885 238.587 125.607 239.581 125.051 240.347C124.502 241.119 123.761 241.684 122.828 242.042C121.902 242.407 120.87 242.589 119.734 242.589ZM119.66 234.77C120.537 234.77 121.278 234.57 121.883 234.168C122.488 233.767 122.949 233.189 123.264 232.436C123.579 231.682 123.736 230.781 123.736 229.731C123.736 228.706 123.582 227.801 123.273 227.016C122.964 226.232 122.507 225.618 121.902 225.173C121.297 224.728 120.549 224.506 119.66 224.506C118.734 224.506 117.962 224.741 117.344 225.21C116.733 225.679 116.272 226.309 115.964 227.1C115.661 227.89 115.51 228.767 115.51 229.731C115.51 230.719 115.664 231.593 115.973 232.352C116.288 233.106 116.751 233.699 117.362 234.131C117.98 234.557 118.746 234.77 119.66 234.77Z" fill="#231546"/>
<path d="M539.181 234.412C538.227 234.412 537.384 234.243 536.652 233.905C535.925 233.562 535.357 233.092 534.95 232.494C534.542 231.892 534.341 231.207 534.345 230.438C534.341 229.836 534.459 229.28 534.7 228.77C534.941 228.256 535.269 227.828 535.686 227.485C536.108 227.138 536.578 226.917 537.097 226.825V226.741C536.416 226.565 535.874 226.183 535.471 225.595C535.068 225.002 534.869 224.328 534.873 223.573C534.869 222.851 535.052 222.205 535.422 221.635C535.793 221.065 536.302 220.616 536.951 220.287C537.604 219.958 538.347 219.794 539.181 219.794C540.006 219.794 540.742 219.958 541.391 220.287C542.039 220.616 542.549 221.065 542.919 221.635C543.294 222.205 543.484 222.851 543.489 223.573C543.484 224.328 543.278 225.002 542.87 225.595C542.467 226.183 541.933 226.565 541.266 226.741V226.825C541.78 226.917 542.243 227.138 542.655 227.485C543.067 227.828 543.396 228.256 543.642 228.77C543.887 229.28 544.012 229.836 544.017 230.438C544.012 231.207 543.804 231.892 543.392 232.494C542.984 233.092 542.417 233.562 541.689 233.905C540.967 234.243 540.131 234.412 539.181 234.412ZM539.181 232.883C539.825 232.883 540.381 232.779 540.849 232.571C541.316 232.362 541.678 232.068 541.933 231.688C542.187 231.309 542.317 230.864 542.322 230.354C542.317 229.817 542.178 229.342 541.905 228.93C541.631 228.518 541.259 228.194 540.786 227.957C540.318 227.721 539.783 227.603 539.181 227.603C538.574 227.603 538.032 227.721 537.555 227.957C537.083 228.194 536.71 228.518 536.437 228.93C536.168 229.342 536.036 229.817 536.041 230.354C536.036 230.864 536.159 231.309 536.409 231.688C536.664 232.068 537.027 232.362 537.5 232.571C537.972 232.779 538.533 232.883 539.181 232.883ZM539.181 226.13C539.691 226.13 540.142 226.028 540.536 225.824C540.934 225.621 541.247 225.336 541.474 224.97C541.701 224.604 541.817 224.175 541.821 223.684C541.817 223.203 541.703 222.784 541.481 222.427C541.259 222.066 540.951 221.788 540.557 221.593C540.163 221.394 539.705 221.294 539.181 221.294C538.648 221.294 538.183 221.394 537.785 221.593C537.386 221.788 537.078 222.066 536.861 222.427C536.643 222.784 536.536 223.203 536.541 223.684C536.536 224.175 536.645 224.604 536.868 224.97C537.094 225.336 537.407 225.621 537.805 225.824C538.204 226.028 538.662 226.13 539.181 226.13ZM551.321 234.412C550.274 234.412 549.382 234.127 548.646 233.557C547.909 232.983 547.347 232.152 546.958 231.063C546.568 229.97 546.374 228.65 546.374 227.103C546.374 225.565 546.568 224.252 546.958 223.163C547.351 222.07 547.916 221.236 548.653 220.662C549.394 220.083 550.283 219.794 551.321 219.794C552.358 219.794 553.245 220.083 553.982 220.662C554.723 221.236 555.288 222.07 555.677 223.163C556.071 224.252 556.268 225.565 556.268 227.103C556.268 228.65 556.073 229.97 555.684 231.063C555.295 232.152 554.732 232.983 553.996 233.557C553.259 234.127 552.368 234.412 551.321 234.412ZM551.321 232.883C552.358 232.883 553.164 232.383 553.739 231.383C554.313 230.382 554.6 228.956 554.6 227.103C554.6 225.871 554.468 224.822 554.204 223.955C553.945 223.089 553.57 222.429 553.079 221.975C552.592 221.521 552.006 221.294 551.321 221.294C550.293 221.294 549.489 221.802 548.91 222.816C548.331 223.826 548.041 225.255 548.041 227.103C548.041 228.335 548.171 229.382 548.431 230.243C548.69 231.105 549.063 231.76 549.549 232.209C550.04 232.659 550.631 232.883 551.321 232.883ZM566.161 231.549V230.799C566.161 230.28 566.268 229.805 566.481 229.375C566.699 228.939 567.014 228.592 567.426 228.333C567.843 228.069 568.348 227.937 568.941 227.937C569.543 227.937 570.048 228.069 570.455 228.333C570.863 228.592 571.171 228.939 571.379 229.375C571.588 229.805 571.692 230.28 571.692 230.799V231.549C571.692 232.068 571.585 232.545 571.372 232.981C571.164 233.411 570.854 233.759 570.441 234.023C570.034 234.282 569.534 234.412 568.941 234.412C568.338 234.412 567.831 234.282 567.419 234.023C567.007 233.759 566.694 233.411 566.481 232.981C566.268 232.545 566.161 232.068 566.161 231.549ZM567.579 230.799V231.549C567.579 231.98 567.681 232.367 567.885 232.71C568.088 233.048 568.44 233.217 568.941 233.217C569.427 233.217 569.77 233.048 569.969 232.71C570.173 232.367 570.275 231.98 570.275 231.549V230.799C570.275 230.368 570.177 229.984 569.983 229.646C569.788 229.303 569.441 229.132 568.941 229.132C568.454 229.132 568.105 229.303 567.892 229.646C567.683 229.984 567.579 230.368 567.579 230.799ZM559.075 223.406V222.656C559.075 222.137 559.181 221.663 559.394 221.232C559.612 220.796 559.927 220.449 560.339 220.19C560.756 219.926 561.261 219.794 561.854 219.794C562.456 219.794 562.961 219.926 563.368 220.19C563.776 220.449 564.084 220.796 564.293 221.232C564.501 221.663 564.605 222.137 564.605 222.656V223.406C564.605 223.925 564.499 224.402 564.286 224.838C564.077 225.269 563.767 225.616 563.355 225.88C562.947 226.139 562.447 226.269 561.854 226.269C561.252 226.269 560.744 226.139 560.332 225.88C559.92 225.616 559.607 225.269 559.394 224.838C559.181 224.402 559.075 223.925 559.075 223.406ZM560.492 222.656V223.406C560.492 223.837 560.594 224.224 560.798 224.567C561.002 224.905 561.354 225.074 561.854 225.074C562.34 225.074 562.683 224.905 562.882 224.567C563.086 224.224 563.188 223.837 563.188 223.406V222.656C563.188 222.225 563.091 221.841 562.896 221.503C562.701 221.16 562.354 220.989 561.854 220.989C561.367 220.989 561.018 221.16 560.805 221.503C560.596 221.841 560.492 222.225 560.492 222.656ZM559.603 234.217L569.385 219.988H570.969L561.187 234.217H559.603Z" fill="#231546"/>
</svg>
