<svg width="13" height="15" viewBox="0 0 13 15" fill="none" xmlns="http://www.w3.org/2000/svg">
<path d="M4.5 1.49992C4.5 1.13173 4.79848 0.833252 5.16667 0.833252H7.83333C8.20152 0.833252 8.5 1.13173 8.5 1.49992V2.16659H11.8333C12.2015 2.16659 12.5 2.46506 12.5 2.83325C12.5 3.20144 12.2015 3.49992 11.8333 3.49992H1.16667C0.798477 3.49992 0.5 3.20144 0.5 2.83325C0.5 2.46506 0.798477 2.16659 1.16667 2.16659H4.5V1.49992Z" fill="#231546"/>
<path fill-rule="evenodd" clip-rule="evenodd" d="M10.5 4.83325H2.5C2.13181 4.83325 1.83333 5.13173 1.83333 5.49992V12.1666C1.83333 13.2712 2.72876 14.1666 3.83333 14.1666H9.16667C10.2712 14.1666 11.1667 13.2712 11.1667 12.1666V5.49992C11.1667 5.13173 10.8682 4.83325 10.5 4.83325ZM5.16667 6.16658C4.79848 6.16658 4.5 6.46506 4.5 6.83325V10.8333C4.5 11.2014 4.79848 11.4999 5.16667 11.4999C5.53486 11.4999 5.83333 11.2014 5.83333 10.8333V6.83325C5.83333 6.46506 5.53486 6.16658 5.16667 6.16658ZM7.16667 6.83325C7.16667 6.46506 7.46514 6.16658 7.83333 6.16658C8.20152 6.16658 8.5 6.46506 8.5 6.83325V10.8333C8.5 11.2014 8.20152 11.4999 7.83333 11.4999C7.46514 11.4999 7.16667 11.2014 7.16667 10.8333V6.83325Z" fill="#231546"/>
</svg>
