<svg width="21" height="20" viewBox="0 0 21 20" fill="none" xmlns="http://www.w3.org/2000/svg">
<path opacity="0.4" d="M16.0827 7.50008C16.0827 8.70842 15.7243 9.81676 15.1077 10.7418C14.2077 12.0751 12.7827 13.0168 11.1243 13.2584C10.841 13.3084 10.5493 13.3334 10.2493 13.3334C9.94935 13.3334 9.65768 13.3084 9.37435 13.2584C7.71602 13.0168 6.29102 12.0751 5.39102 10.7418C4.77435 9.81676 4.41602 8.70842 4.41602 7.50008C4.41602 4.27508 7.02435 1.66675 10.2493 1.66675C13.4743 1.66675 16.0827 4.27508 16.0827 7.50008Z" fill="#666666"/>
<path d="M17.9592 15.3917L16.5842 15.7167C16.2759 15.7917 16.0342 16.025 15.9675 16.3333L15.6759 17.5583C15.5175 18.225 14.6675 18.425 14.2259 17.9L10.2509 13.3333L6.27588 17.9083C5.83421 18.4333 4.98421 18.2333 4.82588 17.5667L4.53421 16.3417C4.45921 16.0333 4.21755 15.7917 3.91755 15.725L2.54255 15.4C1.90921 15.25 1.68421 14.4583 2.14255 14L5.39255 10.75C6.29255 12.0833 7.71755 13.025 9.37588 13.2667C9.65921 13.3167 9.95088 13.3417 10.2509 13.3417C10.5509 13.3417 10.8425 13.3167 11.1259 13.2667C12.7842 13.025 14.2092 12.0833 15.1092 10.75L18.3592 14C18.8175 14.45 18.5925 15.2417 17.9592 15.3917Z" fill="#666666"/>
<path d="M10.7336 4.98325L11.2253 5.96658C11.292 6.09991 11.467 6.23325 11.6253 6.25825L12.517 6.40824C13.0836 6.49991 13.217 6.91658 12.8086 7.32492L12.117 8.01657C12.0003 8.13324 11.9336 8.35825 11.9753 8.52492L12.1753 9.38325C12.3336 10.0583 11.9753 10.3249 11.3753 9.96657L10.542 9.47491C10.392 9.38324 10.142 9.38324 9.99197 9.47491L9.15864 9.96657C8.55864 10.3166 8.2003 10.0583 8.35864 9.38325L8.55864 8.52492C8.59197 8.36659 8.53364 8.13324 8.41697 8.01657L7.7253 7.32492C7.31697 6.91658 7.4503 6.50824 8.01697 6.40824L8.90864 6.25825C9.05864 6.23325 9.23364 6.09991 9.3003 5.96658L9.79197 4.98325C10.0336 4.44992 10.467 4.44992 10.7336 4.98325Z" fill="#666666"/>
</svg>
