<svg width="128" height="128" viewBox="0 0 128 128" fill="none" xmlns="http://www.w3.org/2000/svg">
<path fill-rule="evenodd" clip-rule="evenodd" d="M63.8771 13.719C60.0527 13.6504 56.2524 14.3371 52.6939 15.7398C49.1354 17.1425 45.8886 19.2336 43.1396 21.8932C40.3907 24.5528 38.1935 27.7288 36.674 31.239C35.1611 34.7342 34.3497 38.4925 34.2857 42.3003V45.7143V66.2915V82.2857C34.2857 87.3352 30.1923 91.4286 25.1429 91.4286H13.7143C6.14009 91.4286 0 85.2885 0 77.7143V59.4286C0 51.8544 6.14009 45.7143 13.7143 45.7143H20.5714V42.2458C20.5714 42.2112 20.5717 42.1767 20.5722 42.1422C20.6572 36.5136 21.8521 30.9571 24.0883 25.7911C26.3244 20.6251 29.558 15.9511 33.6037 12.0369C37.6493 8.12272 42.4276 5.04529 47.6646 2.98096C52.8636 0.931662 58.4132 -0.0792608 64 0.00484853C69.5868 -0.0792608 75.1365 0.931662 80.3354 2.98096C85.5724 5.04529 90.3507 8.12272 94.3963 12.0369C98.442 15.9511 101.676 20.6251 103.912 25.7911C106.148 30.9571 107.343 36.5136 107.428 42.1422C107.428 42.1767 107.429 42.2112 107.429 42.2458V45.7143H114.286C121.86 45.7143 128 51.8544 128 59.4286V77.7143C128 85.2885 121.86 91.4286 114.286 91.4286H107.429V96C107.429 102.668 104.78 109.063 100.064 113.779C96.0205 117.823 90.741 120.347 85.1132 120.983C82.7655 125.17 78.2846 128 73.1429 128H59.4286C51.8544 128 45.7143 121.86 45.7143 114.286C45.7143 106.712 51.8544 100.571 59.4286 100.571H73.1429C78.0979 100.571 82.4393 103.199 84.8492 107.137C86.9221 106.66 88.8387 105.609 90.3669 104.081C92.5102 101.938 93.7143 99.031 93.7143 96V42.3006C93.6504 38.4927 92.839 34.7343 91.326 31.239C89.8065 27.7288 87.6094 24.5528 84.8604 21.8932C82.1114 19.2336 78.8646 17.1425 75.3061 15.7398C71.7476 14.3371 67.9473 13.6504 64.1229 13.719C64.041 13.7204 63.959 13.7204 63.8771 13.719Z" fill="#D99A26"/>
</svg>
