<svg width="108" height="24" viewBox="0 0 108 24" fill="none" xmlns="http://www.w3.org/2000/svg">
<path d="M63.9423 7.43481V23.7415H59.2127V21.3599C58.7301 22.1859 58.0329 22.8618 57.1857 23.3231C56.317 23.7844 55.341 24.0097 54.3544 23.999C52.3167 23.999 50.7938 23.4304 49.7856 22.2932C48.7775 21.156 48.2734 19.4395 48.2734 17.1437V7.43481H53.1317V17.2403C53.1317 19.2142 53.979 20.2012 55.6735 20.2012C56.6816 20.2012 57.4967 19.8579 58.1187 19.1713C58.7408 18.4847 59.0518 17.5836 59.0518 16.4679V7.43481H63.9423Z" fill="#422466"/>
<path d="M82.4858 0V23.7412H77.6918V21.3274C77.1985 22.1642 76.4692 22.8508 75.6005 23.2907C74.6567 23.7734 73.6057 24.0202 72.5439 23.9987C71.2248 24.0202 69.9271 23.6447 68.8117 22.9259C67.7178 22.2071 66.8706 21.1987 66.2593 19.9006C65.6479 18.6025 65.3477 17.1113 65.3477 15.4484C65.3477 13.7749 65.6479 12.3051 66.2593 11.0285C66.8706 9.75182 67.7178 8.76484 68.801 8.06751C69.8842 7.37019 71.1283 7.02689 72.5439 7.02689C73.5842 7.01616 74.6031 7.25218 75.5362 7.71349C76.3941 8.14261 77.1234 8.80775 77.6275 9.62309V0H82.4858ZM76.7266 19.0638C77.3701 18.2377 77.6918 17.0576 77.6918 15.5128C77.6918 13.9894 77.3701 12.8201 76.7052 11.994C76.0509 11.1679 75.1393 10.7603 73.9596 10.7603C72.7584 10.7603 71.8254 11.1679 71.1605 11.9833C70.4955 12.7986 70.1631 13.9572 70.1631 15.4592C70.1631 17.004 70.4955 18.1948 71.1605 19.0423C71.8254 19.8899 72.7584 20.3083 73.9596 20.3083C75.1715 20.2975 76.0831 19.8899 76.7266 19.0638Z" fill="#422466"/>
<path d="M101.029 7.43454V23.7412H96.2348V21.3274C95.7415 22.1642 95.0122 22.8508 94.1435 23.2906C93.1997 23.7734 92.1487 24.0201 91.0869 23.9987C89.6713 23.9987 88.4272 23.6554 87.344 22.9688C86.2608 22.2822 85.4135 21.3059 84.8022 20.0293C84.1909 18.7527 83.8906 17.2829 83.8906 15.6093C83.8906 13.9358 84.2016 12.4446 84.8022 11.1357C85.4135 9.8269 86.2608 8.81846 87.3547 8.09968C88.4594 7.3809 89.7678 7.00542 91.0869 7.02687C92.1487 7.00542 93.1997 7.26289 94.1435 7.76711C95.0122 8.22842 95.7307 8.91502 96.2348 9.76253V7.43454H101.029ZM95.2696 19.0852C95.913 18.2699 96.2348 17.0898 96.2348 15.545C96.2348 14.0001 95.913 12.8093 95.2696 11.994C94.6261 11.1679 93.7038 10.7602 92.5026 10.7602C91.3014 10.7602 90.3684 11.1894 89.7034 12.0476C89.0385 12.9059 88.706 14.0967 88.706 15.6201C88.706 17.1435 89.0385 18.3021 89.6927 19.1067C90.3469 19.9113 91.28 20.3082 92.5026 20.3082C93.7038 20.2975 94.6261 19.8898 95.2696 19.0852Z" fill="#422466"/>
<path d="M47.3085 23.9773H41.2813L34.8035 16.5856V23.9773H29.8809V0H34.8035V14.558L40.9917 7.4882H46.8903L39.887 15.4055L47.3085 23.9773Z" fill="#422466"/>
<path d="M16.4102 23.9773L6.98318 13.1204L12.1311 23.9773H8.55971L3.3046 12.9059L5.49244 23.9773H3.29387L1.10603 12.8844V23.9773H0.248047V0H1.10603V11.9618L3.32604 0H5.51389L3.28315 12.0154L8.64551 0H12.1739L6.84376 11.9725L16.5282 0H22.0729L12.0453 12.3909L22.1158 23.9773H16.4102Z" fill="#422466"/>
<path d="M105.093 23.7201C106.562 23.7201 107.753 22.5289 107.753 21.0595C107.753 19.5901 106.562 18.3989 105.093 18.3989C103.624 18.3989 102.434 19.5901 102.434 21.0595C102.434 22.5289 103.624 23.7201 105.093 23.7201Z" fill="#422466"/>
</svg>
