<svg width="1440" height="351" viewBox="0 0 1440 351" fill="none" xmlns="http://www.w3.org/2000/svg">
<path fill-rule="evenodd" clip-rule="evenodd" d="M68.6 505.628L69.3246 502.708H37.2283L36.5037 505.628H68.6ZM26.6659 505.628L24.9609 502.708H6.52157L5.79694 505.628H26.6659ZM67.1507 511.467L67.8754 508.547H35.7791L35.0545 511.467H67.1507ZM30.0844 511.467L28.3794 508.547H5.08085L4.35623 511.467H30.0844ZM65.7015 517.307L66.4261 514.387H34.3298L33.6052 517.307H65.7015ZM33.4944 517.307L31.7894 514.387H3.63162L2.907 517.307H33.5029H33.4944ZM64.2523 523.146L64.9769 520.227H2.17386L1.44923 523.146H64.2523ZM62.803 528.986L63.5277 526.066H0.724623L0 528.986H62.803ZM128.24 388.799L128.965 385.879H96.8686L96.144 388.799H128.24ZM85.539 388.799L83.834 385.879H66.1704L65.4458 388.799H85.5475H85.539ZM126.791 394.639L127.516 391.719H95.4194L94.6947 394.639H126.791ZM88.949 394.639L87.244 391.719H64.7126L63.988 394.639H88.949ZM125.342 400.478L126.066 397.558H93.9701L93.2455 400.478H125.342ZM92.3674 400.478L90.6625 397.558H63.2719L62.5473 400.478H92.3674ZM123.893 406.318L124.617 403.398H61.8141L61.0895 406.318H123.893ZM122.443 412.157L123.168 409.238H60.3649L59.6403 412.157H122.443ZM120.994 417.997L121.719 415.077H58.9157L58.1911 417.997H120.994ZM119.545 423.836L120.269 420.917H57.4664L56.7418 423.836H119.545ZM118.096 429.676L118.82 426.756H56.0172L55.2926 429.676H118.096ZM85.9482 435.516L86.4597 433.438L87.6702 435.516H116.638L117.362 432.596H54.5595L53.8348 435.516H85.9311H85.9482ZM84.499 441.355L85.2236 438.435H53.1273L52.4027 441.355H84.499ZM89.3837 438.435L91.0887 441.355H115.197L115.922 438.435H89.3837ZM83.0497 447.195L83.7743 444.275H51.678L50.9534 447.195H83.0497ZM92.7937 444.275L94.4987 447.195H113.748L114.473 444.275H92.7937ZM81.6005 453.034L82.3251 450.115H50.2288L49.5042 453.034H81.6005ZM96.2122 450.115L97.9172 453.034H112.299L113.023 450.115H96.2122ZM80.1598 458.874L80.8844 455.954H48.7881L48.0635 458.874H80.1598ZM99.6307 455.954L101.336 458.874H110.858L111.583 455.954H99.6307ZM78.7105 464.713L79.4352 461.794H47.3389L46.6142 464.713H78.7105ZM103.041 461.794L104.746 464.713H109.409L110.133 461.794H103.041ZM77.2613 470.553L77.9859 467.633H45.8896L45.165 470.553H77.2613ZM106.459 467.633L108.028 470.308L108.693 467.633H106.468H106.459ZM75.8206 476.392L76.5452 473.473H44.4489L43.7243 476.392H75.8206ZM74.3714 482.232L75.096 479.312H42.9997L42.2751 482.232H74.3714ZM12.992 482.232L11.9946 480.527L11.5683 482.232H12.992ZM72.9221 488.072L73.6467 485.152H41.5504L40.8258 488.072H72.9221ZM16.4019 488.072L14.697 485.152H10.8437L10.1191 488.072H16.4019ZM71.4729 493.911L72.1975 490.991H40.1012L39.3766 493.911H71.4729ZM19.8204 493.911L18.1154 490.991H9.40298L8.67837 493.911H19.8204ZM70.0236 499.751L70.7483 496.831H38.652L37.9273 499.751H70.0236ZM23.2304 499.751L21.5254 496.831H7.95375L7.22912 499.751H23.2389H23.2304ZM145.588 318.682L145.878 317.531L146.552 318.682H176.295L177.02 315.762H114.217L113.492 318.682H145.588ZM73.57 368.329L71.4047 364.626L70.484 368.329L69.7594 371.248H75.275L73.57 368.329ZM144.139 324.521L144.864 321.602H112.768L112.043 324.521H144.139ZM142.69 330.361L143.415 327.441H111.318L110.594 330.361H142.69ZM141.241 336.2L141.965 333.281H109.869L109.144 336.2H141.241ZM139.792 342.04L140.516 339.12H108.42L107.695 342.04H139.792ZM138.342 347.88L139.067 344.96H106.971L106.246 347.88H138.342ZM136.893 353.719L137.618 350.799H105.521L104.797 353.719H136.893ZM135.444 359.559L136.168 356.639H104.072L103.348 359.559H135.444ZM133.995 365.398L134.719 362.478H102.623L101.898 365.398H133.995ZM132.545 371.238L133.27 368.318H101.174L100.449 371.238H132.545ZM131.096 377.077L131.821 374.158H99.7244L98.9998 377.077H131.096ZM129.647 382.917L130.372 379.997H98.2752L97.5506 382.917H129.647ZM167.012 353.714L167.412 354.396L167.583 353.714L168.307 350.794H165.307L167.012 353.714ZM82.0779 382.917L80.3729 379.997H67.5685L66.8438 382.917H82.0779ZM78.6594 377.077L76.9544 374.158H69.0092L68.2846 377.077H78.6594ZM161.88 344.954L163.585 347.874H169.015L169.74 344.954H161.88ZM158.461 339.115L160.166 342.035H170.456L171.18 339.115H158.461ZM155.043 333.275L156.748 336.195H171.905L172.63 333.275H155.043ZM151.624 327.436L153.329 330.356H173.346L174.07 327.436H151.624ZM148.206 321.596L149.911 324.516H174.786L175.511 321.596H148.206ZM203.737 207.698L204.462 204.778H172.365L171.641 207.698H203.737ZM132.392 251.506L130.772 248.73L130.082 251.506L129.357 254.425H134.097L132.392 251.506ZM202.288 213.538L203.012 210.618H170.916L170.191 213.538H202.288ZM200.838 219.377L201.563 216.458H169.467L168.742 219.377H200.838ZM199.389 225.217L200.114 222.297H168.018L167.293 225.217H199.389ZM197.94 231.056L198.665 228.137H166.568L165.844 231.056H197.94ZM196.491 236.896L197.215 233.976H165.119L164.394 236.896H196.491ZM195.042 242.736L195.766 239.816H163.67L162.945 242.736H195.042ZM193.592 248.575L194.317 245.655H162.221L161.496 248.575H193.592ZM192.143 254.415L192.868 251.495H160.771L160.047 254.415H192.143ZM190.694 260.254L191.418 257.334H159.322L158.597 260.254H190.694ZM189.245 266.094L189.969 263.174H157.873L157.148 266.094H189.245ZM187.795 271.933L188.52 269.014H156.424L155.699 271.933H187.795ZM186.346 277.773L187.071 274.853H154.974L154.25 277.773H186.346ZM184.897 283.612L185.621 280.693H153.525L152.801 283.612H184.897ZM183.448 289.452L184.172 286.532H121.369L120.645 289.452H183.448ZM181.998 295.292L182.723 292.372H119.92L119.195 295.292H181.998ZM180.549 301.131L181.274 298.211H118.471L117.746 301.131H180.549ZM179.1 306.971L179.825 304.051H117.021L116.297 306.971H179.1ZM177.651 312.81L178.375 309.89H115.572L114.848 312.81H177.651ZM225.825 236.875L226.763 238.484L227.163 236.875L227.888 233.955H224.12L225.825 236.875ZM151.138 283.602L149.433 280.682H122.81L122.085 283.602H151.138ZM147.72 277.762L146.015 274.842H124.259L123.535 277.762H147.728H147.72ZM144.301 271.923L142.596 269.003H125.7L124.975 271.923H144.301ZM140.883 266.083L139.178 263.163H127.141L126.416 266.083H140.883ZM137.464 260.244L135.759 257.324H128.59L127.865 260.244H137.473H137.464ZM220.684 228.121L222.389 231.04H228.587L229.312 228.121H220.684ZM217.266 222.281L218.971 225.201H230.036L230.761 222.281H217.266ZM213.847 216.442L215.552 219.361H231.477L232.202 216.442H213.847ZM210.429 210.602L212.134 213.522H232.918L233.642 210.602H210.429ZM207.01 204.762L208.715 207.682H234.367L235.092 204.762H207.01ZM295.456 85.0196L296.181 82.0998H233.387L232.662 85.0196H295.456ZM191.197 134.666L190.114 132.818L189.654 134.666L188.929 137.586H192.902L191.197 134.666ZM263.309 90.8591L264.034 87.9393H231.937L231.213 90.8591H263.309ZM261.86 96.6987L262.584 93.7789H230.488L229.763 96.6987H261.86ZM260.411 102.538L261.135 99.6184H229.039L228.314 102.538H260.411ZM258.961 108.378L259.686 105.458H227.59L226.865 108.378H258.961ZM257.512 114.217L258.237 111.298H226.14L225.416 114.217H257.512ZM256.063 120.057L256.787 117.137H224.691L223.967 120.057H256.063ZM254.614 125.896L255.338 122.977H223.242L222.517 125.896H254.614ZM253.164 131.736L253.889 128.816H221.793L221.068 131.736H253.164ZM251.715 137.576L252.44 134.656H220.343L219.619 137.576H251.715ZM250.266 143.415L250.991 140.495H218.894L218.17 143.415H250.266ZM248.817 149.255L249.541 146.335H217.445L216.72 149.255H248.817ZM247.367 155.094L248.092 152.174H215.996L215.271 155.094H247.367ZM245.918 160.934L246.643 158.014H214.547L213.822 160.934H245.918ZM244.469 166.773L245.194 163.854H213.097L212.373 166.773H244.469ZM243.02 172.613L243.744 169.693H180.941L180.217 172.613H243.02ZM241.57 178.452L242.295 175.533H179.492L178.767 178.452H241.57ZM240.121 184.292L240.846 181.372H178.043L177.318 184.292H240.121ZM238.672 190.132L239.397 187.212H176.594L175.869 190.132H238.672ZM237.223 195.971L237.947 193.051H175.144L174.42 195.971H237.223ZM205.075 201.811L205.135 201.582L205.271 201.811H235.782L236.507 198.891H173.704L172.979 201.811H205.075ZM284.63 120.036L286.113 122.566L286.744 120.036L287.469 117.116H282.933L284.638 120.036H284.63ZM209.943 166.763L208.238 163.843H182.391L181.666 166.763H209.952H209.943ZM206.525 160.923L204.82 158.003H183.831L183.107 160.923H206.525ZM203.106 155.084L201.401 152.164H185.272L184.547 155.084H203.106ZM199.688 149.244L197.983 146.324H186.721L185.997 149.244H199.696H199.688ZM196.269 143.404L194.564 140.485H188.162L187.437 143.404H196.269ZM279.489 111.282L281.194 114.201H288.168L288.892 111.282H279.489ZM276.071 105.442L277.776 108.362H289.608L290.333 105.442H276.071ZM272.652 99.6025L274.357 102.522H291.049L291.774 99.6025H272.652ZM269.234 93.7629L270.939 96.6827H292.498L293.223 93.7629H269.234ZM265.815 87.9233L267.52 90.8431H293.939L294.664 87.9233H265.815ZM315.865 3.29771L316.59 0.37793H284.493L283.769 3.29771H315.865ZM314.416 9.13727L315.141 6.21749H283.044L282.32 9.13727H314.416ZM312.967 14.9768L313.691 12.057H281.595L280.87 14.9768H312.967ZM311.517 20.8164L312.242 17.8966H280.146L279.421 20.8164H311.517ZM310.068 26.6559L310.793 23.7362H278.696L277.972 26.6559H310.068ZM308.619 32.4955L309.344 29.5757H277.247L276.523 32.4955H308.619ZM307.17 38.3351L307.894 35.4153H275.798L275.073 38.3351H307.17ZM305.72 44.1746L306.445 41.2548H274.349L273.624 44.1746H305.72ZM304.271 50.0142L304.996 47.0944H272.9L272.175 50.0142H304.271ZM302.822 55.8537L303.547 52.934H271.45L271.229 53.8451L270.7 52.934H240.761L240.036 55.8537H302.831H302.822ZM301.373 61.6933L302.097 58.7735H239.303L238.578 61.6933H301.373ZM299.924 67.5329L300.648 64.6131H237.854L237.129 67.5329H299.924ZM298.474 73.3724L299.199 70.4526H236.404L235.68 73.3724H298.474ZM297.025 79.212L297.75 76.2922H234.955L234.231 79.212H297.025ZM250.198 17.8806L249.661 16.9535L249.43 17.8806L248.706 20.8004H251.911L250.206 17.8806H250.198ZM268.978 50.0035L267.273 47.0837H242.193L241.468 50.0035H268.978ZM265.56 44.164L263.855 41.2442H243.634L242.909 44.164H265.56ZM262.141 38.3244L260.436 35.4046H245.083L244.358 38.3244H262.15H262.141ZM258.723 32.4848L257.018 29.5651H246.523L245.799 32.4848H258.723ZM255.304 26.6453L253.599 23.7255H247.964L247.24 26.6453H255.304Z" fill="#D19D33" fill-opacity="0.5"/>
<path fill-rule="evenodd" clip-rule="evenodd" d="M352.62 505.565L353.344 502.645H321.248L320.523 505.565H352.62ZM310.685 505.565L308.98 502.645H290.541L289.816 505.565H310.685ZM351.17 511.404L351.895 508.484H319.799L319.074 511.404H351.17ZM314.104 511.404L312.399 508.484H289.1L288.376 511.404H314.104ZM349.721 517.244L350.446 514.324H318.349L317.625 517.244H349.721ZM317.514 517.244L315.809 514.324H287.651L286.927 517.244H317.522H317.514ZM348.272 523.083L348.996 520.163H286.193L285.469 523.083H348.272ZM346.823 528.923L347.547 526.003H284.744L284.02 528.923H346.823ZM412.26 388.736L412.984 385.816H380.888L380.164 388.736H412.26ZM369.559 388.736L367.854 385.816H350.19L349.465 388.736H369.567H369.559ZM410.811 394.576L411.535 391.656H379.439L378.714 394.576H410.811ZM372.968 394.576L371.264 391.656H348.732L348.008 394.576H372.968ZM409.361 400.415L410.086 397.495H377.99L377.265 400.415H409.361ZM376.387 400.415L374.682 397.495H347.291L346.567 400.415H376.387ZM407.912 406.255L408.637 403.335H345.834L345.109 406.255H407.912ZM406.463 412.094L407.187 409.175H344.384L343.66 412.094H406.463ZM405.014 417.934L405.738 415.014H342.935L342.211 417.934H405.014ZM403.564 423.773L404.289 420.854H341.486L340.761 423.773H403.564ZM402.115 429.613L402.84 426.693H340.037L339.312 429.613H402.115ZM369.968 435.453L370.479 433.375L371.69 435.453H400.657L401.382 432.533H338.579L337.854 435.453H369.951H369.968ZM368.518 441.292L369.243 438.372H337.147L336.422 441.292H368.518ZM373.403 438.372L375.108 441.292H399.217L399.941 438.372H373.403ZM367.069 447.132L367.794 444.212H335.698L334.973 447.132H367.069ZM376.813 444.212L378.518 447.132H397.767L398.492 444.212H376.813ZM365.62 452.971L366.345 450.051H334.248L333.524 452.971H365.62ZM380.232 450.051L381.937 452.971H396.318L397.043 450.051H380.232ZM364.179 458.811L364.904 455.891H332.808L332.083 458.811H364.179ZM383.65 455.891L385.355 458.811H394.878L395.602 455.891H383.65ZM362.73 464.65L363.455 461.731H331.358L330.634 464.65H362.73ZM387.06 461.731L388.765 464.65H393.428L394.153 461.731H387.06ZM361.281 470.49L362.005 467.57H329.909L329.185 470.49H361.281ZM390.479 467.57L392.047 470.245L392.712 467.57H390.487H390.479ZM359.84 476.329L360.565 473.41H328.468L327.744 476.329H359.84ZM358.391 482.169L359.116 479.249H327.019L326.295 482.169H358.391ZM297.012 482.169L296.014 480.464L295.588 482.169H297.012ZM356.942 488.009L357.666 485.089H325.57L324.845 488.009H356.942ZM300.421 488.009L298.716 485.089H294.863L294.139 488.009H300.421ZM355.492 493.848L356.217 490.928H324.121L323.396 493.848H355.492ZM303.84 493.848L302.135 490.928H293.423L292.698 493.848H303.84ZM354.043 499.688L354.768 496.768H322.672L321.947 499.688H354.043ZM307.25 499.688L305.545 496.768H291.973L291.249 499.688H307.258H307.25ZM429.608 318.619L429.898 317.468L430.571 318.619H460.315L461.039 315.699H398.236L397.512 318.619H429.608ZM357.59 368.266L355.424 364.563L354.504 368.266L353.779 371.185H359.295L357.59 368.266ZM428.159 324.458L428.883 321.539H396.787L396.062 324.458H428.159ZM426.71 330.298L427.434 327.378H395.338L394.613 330.298H426.71ZM425.26 336.137L425.985 333.218H393.889L393.164 336.137H425.26ZM423.811 341.977L424.536 339.057H392.439L391.715 341.977H423.811ZM422.362 347.817L423.086 344.897H390.99L390.266 347.817H422.362ZM420.913 353.656L421.637 350.736H389.541L388.816 353.656H420.913ZM419.463 359.496L420.188 356.576H388.092L387.367 359.496H419.463ZM418.014 365.335L418.739 362.415H386.642L385.918 365.335H418.014ZM416.565 371.175L417.29 368.255H385.193L384.469 371.175H416.565ZM415.116 377.014L415.84 374.095H383.744L383.019 377.014H415.116ZM413.666 382.854L414.391 379.934H382.295L381.57 382.854H413.666ZM451.031 353.651L451.432 354.333L451.602 353.651L452.327 350.731H449.326L451.031 353.651ZM366.097 382.854L364.392 379.934H351.588L350.863 382.854H366.097ZM362.679 377.014L360.974 374.095H353.029L352.304 377.014H362.679ZM445.899 344.891L447.604 347.811H453.034L453.759 344.891H445.899ZM442.481 339.052L444.186 341.972H454.475L455.2 339.052H442.481ZM439.062 333.212L440.767 336.132H455.924L456.649 333.212H439.062ZM435.644 327.373L437.349 330.293H457.365L458.09 327.373H435.644ZM432.225 321.533L433.93 324.453H458.806L459.53 321.533H432.225ZM487.756 207.635L488.481 204.715H456.385L455.66 207.635H487.756ZM416.411 251.443L414.792 248.667L414.101 251.443L413.377 254.362H418.116L416.411 251.443ZM486.307 213.475L487.032 210.555H454.936L454.211 213.475H486.307ZM484.858 219.314L485.583 216.395H453.486L452.762 219.314H484.858ZM483.409 225.154L484.133 222.234H452.037L451.312 225.154H483.409ZM481.96 230.993L482.684 228.074H450.588L449.863 230.993H481.96ZM480.51 236.833L481.235 233.913H449.139L448.414 236.833H480.51ZM479.061 242.673L479.786 239.753H447.689L446.965 242.673H479.061ZM477.612 248.512L478.336 245.592H446.24L445.516 248.512H477.612ZM476.163 254.352L476.887 251.432H444.791L444.066 254.352H476.163ZM474.713 260.191L475.438 257.271H443.342L442.617 260.191H474.713ZM473.264 266.031L473.989 263.111H441.892L441.168 266.031H473.264ZM471.815 271.87L472.539 268.951H440.443L439.719 271.87H471.815ZM470.366 277.71L471.09 274.79H438.994L438.269 277.71H470.366ZM468.916 283.549L469.641 280.63H437.545L436.82 283.549H468.916ZM467.467 289.389L468.192 286.469H405.389L404.664 289.389H467.467ZM466.018 295.229L466.743 292.309H403.939L403.215 295.229H466.018ZM464.569 301.068L465.293 298.148H402.49L401.766 301.068H464.569ZM463.119 306.908L463.844 303.988H401.041L400.316 306.908H463.119ZM461.67 312.747L462.395 309.827H399.592L398.867 312.747H461.67ZM509.845 236.812L510.782 238.421L511.183 236.812L511.908 233.892H508.14L509.845 236.812ZM435.158 283.539L433.453 280.619H406.829L406.105 283.539H435.158ZM431.739 277.699L430.034 274.779H408.279L407.554 277.699H431.748H431.739ZM428.321 271.86L426.616 268.94H409.719L408.995 271.86H428.321ZM424.902 266.02L423.197 263.1H411.16L410.435 266.02H424.902ZM421.484 260.181L419.779 257.261H412.609L411.885 260.181H421.492H421.484ZM504.704 228.058L506.409 230.977H512.607L513.331 228.058H504.704ZM501.285 222.218L502.99 225.138H514.056L514.78 222.218H501.285ZM497.867 216.379L499.572 219.298H515.497L516.221 216.379H497.867ZM494.449 210.539L496.154 213.459H516.937L517.662 210.539H494.449ZM491.03 204.699L492.735 207.619H518.386L519.111 204.699H491.03ZM579.476 84.9566L580.201 82.0368H517.406L516.681 84.9566H579.476ZM475.216 134.603L474.134 132.755L473.673 134.603L472.949 137.523H476.921L475.216 134.603ZM547.329 90.7961L548.053 87.8763H515.957L515.232 90.7961H547.329ZM545.879 96.6357L546.604 93.7159H514.508L513.783 96.6357H545.879ZM544.43 102.475L545.155 99.5555H513.058L512.334 102.475H544.43ZM542.981 108.315L543.705 105.395H511.609L510.885 108.315H542.981ZM541.532 114.154L542.256 111.235H510.16L509.435 114.154H541.532ZM540.082 119.994L540.807 117.074H508.711L507.986 119.994H540.082ZM538.633 125.833L539.358 122.914H507.261L506.537 125.833H538.633ZM537.184 131.673L537.909 128.753H505.812L505.088 131.673H537.184ZM535.735 137.513L536.459 134.593H504.363L503.638 137.513H535.735ZM534.285 143.352L535.01 140.432H502.914L502.189 143.352H534.285ZM532.836 149.192L533.561 146.272H501.465L500.74 149.192H532.836ZM531.387 155.031L532.112 152.111H500.015L499.291 155.031H531.387ZM529.938 160.871L530.662 157.951H498.566L497.841 160.871H529.938ZM528.488 166.71L529.213 163.791H497.117L496.392 166.71H528.488ZM527.039 172.55L527.764 169.63H464.961L464.236 172.55H527.039ZM525.59 178.389L526.315 175.47H463.512L462.787 178.389H525.59ZM524.141 184.229L524.865 181.309H462.062L461.338 184.229H524.141ZM522.692 190.069L523.416 187.149H460.613L459.889 190.069H522.692ZM521.242 195.908L521.967 192.988H459.164L458.439 195.908H521.242ZM489.095 201.748L489.155 201.519L489.291 201.748H519.802L520.526 198.828H457.723L456.999 201.748H489.095ZM568.649 119.973L570.133 122.503L570.764 119.973L571.488 117.053H566.953L568.658 119.973H568.649ZM493.963 166.7L492.258 163.78H466.41L465.685 166.7H493.971H493.963ZM490.544 160.86L488.839 157.94H467.851L467.126 160.86H490.544ZM487.126 155.021L485.421 152.101H469.291L468.567 155.021H487.126ZM483.707 149.181L482.002 146.261H470.741L470.016 149.181H483.716H483.707ZM480.289 143.341L478.584 140.422H472.181L471.457 143.341H480.289ZM563.509 111.219L565.214 114.138H572.187L572.912 111.219H563.509ZM560.09 105.379L561.795 108.299H573.628L574.353 105.379H560.09ZM556.672 99.5395L558.377 102.459H575.069L575.793 99.5395H556.672ZM553.253 93.6999L554.958 96.6197H576.518L577.242 93.6999H553.253ZM549.835 87.8604L551.54 90.7801H577.959L578.683 87.8604H549.835ZM599.885 3.23472L600.609 0.314941H568.513L567.788 3.23472H599.885ZM598.435 9.07428L599.16 6.1545H567.064L566.339 9.07428H598.435ZM596.986 14.9138L597.711 11.9941H565.615L564.89 14.9138H596.986ZM595.537 20.7534L596.262 17.8336H564.165L563.441 20.7534H595.537ZM594.088 26.5929L594.812 23.6732H562.716L561.991 26.5929H594.088ZM592.638 32.4325L593.363 29.5127H561.267L560.542 32.4325H592.638ZM591.189 38.2721L591.914 35.3523H559.818L559.093 38.2721H591.189ZM589.74 44.1116L590.465 41.1918H558.368L557.644 44.1116H589.74ZM588.291 49.9512L589.015 47.0314H556.919L556.194 49.9512H588.291ZM586.841 55.7907L587.566 52.871H555.47L555.248 53.7821L554.72 52.871H524.78L524.056 55.7907H586.85H586.841ZM585.392 61.6303L586.117 58.7105H523.322L522.598 61.6303H585.392ZM583.943 67.4699L584.668 64.5501H521.873L521.149 67.4699H583.943ZM582.494 73.3094L583.218 70.3896H520.424L519.699 73.3094H582.494ZM581.045 79.149L581.769 76.2292H518.975L518.25 79.149H581.045ZM534.217 17.8176L533.68 16.8905L533.45 17.8176L532.725 20.7374H535.931L534.226 17.8176H534.217ZM552.998 49.9405L551.293 47.0207H526.212L525.488 49.9405H552.998ZM549.579 44.101L547.874 41.1812H527.653L526.928 44.101H549.579ZM546.161 38.2614L544.456 35.3416H529.102L528.378 38.2614H546.169H546.161ZM542.742 32.4219L541.037 29.5021H530.543L529.818 32.4219H542.742ZM539.324 26.5823L537.619 23.6625H531.984L531.259 26.5823H539.324Z" fill="#D19D33" fill-opacity="0.5"/>
<path fill-rule="evenodd" clip-rule="evenodd" d="M636.653 505.502L637.377 502.582H605.281L604.556 505.502H636.653ZM594.719 505.502L593.014 502.582H574.574L573.85 505.502H594.719ZM635.203 511.341L635.928 508.421H603.832L603.107 511.341H635.203ZM598.137 511.341L596.432 508.421H573.134L572.409 511.341H598.137ZM633.754 517.181L634.479 514.261H602.383L601.658 517.181H633.754ZM601.547 517.181L599.842 514.261H571.684L570.96 517.181H601.556H601.547ZM632.305 523.02L633.03 520.1H570.227L569.502 523.02H632.305ZM630.856 528.86L631.58 525.94H568.777L568.053 528.86H630.856ZM696.293 388.673L697.018 385.753H664.921L664.197 388.673H696.293ZM653.592 388.673L651.887 385.753H634.223L633.499 388.673H653.6H653.592ZM694.844 394.513L695.568 391.593H663.472L662.747 394.513H694.844ZM657.002 394.513L655.297 391.593H632.765L632.041 394.513H657.002ZM693.395 400.352L694.119 397.432H662.023L661.298 400.352H693.395ZM660.42 400.352L658.715 397.432H631.325L630.6 400.352H660.42ZM691.945 406.192L692.67 403.272H629.867L629.142 406.192H691.945ZM690.496 412.031L691.221 409.112H628.418L627.693 412.031H690.496ZM689.047 417.871L689.771 414.951H626.968L626.244 417.871H689.047ZM687.598 423.71L688.322 420.791H625.519L624.795 423.71H687.598ZM686.148 429.55L686.873 426.63H624.07L623.345 429.55H686.148ZM654.001 435.39L654.512 433.312L655.723 435.39H684.691L685.415 432.47H622.612L621.888 435.39H653.984H654.001ZM652.552 441.229L653.276 438.309H621.18L620.455 441.229H652.552ZM657.436 438.309L659.141 441.229H683.25L683.975 438.309H657.436ZM651.102 447.069L651.827 444.149H619.731L619.006 447.069H651.102ZM660.846 444.149L662.551 447.069H681.801L682.525 444.149H660.846ZM649.653 452.908L650.378 449.988H618.282L617.557 452.908H649.653ZM664.265 449.988L665.97 452.908H680.351L681.076 449.988H664.265ZM648.213 458.748L648.937 455.828H616.841L616.116 458.748H648.213ZM667.683 455.828L669.388 458.748H678.911L679.635 455.828H667.683ZM646.763 464.587L647.488 461.668H615.392L614.667 464.587H646.763ZM671.093 461.668L672.798 464.587H677.461L678.186 461.668H671.093ZM645.314 470.427L646.039 467.507H613.942L613.218 470.427H645.314ZM674.512 467.507L676.08 470.182L676.745 467.507H674.52H674.512ZM643.873 476.266L644.598 473.347H612.502L611.777 476.266H643.873ZM642.424 482.106L643.149 479.186H611.052L610.328 482.106H642.424ZM581.045 482.106L580.047 480.401L579.621 482.106H581.045ZM640.975 487.946L641.699 485.026H609.603L608.879 487.946H640.975ZM584.455 487.946L582.75 485.026H578.896L578.172 487.946H584.455ZM639.526 493.785L640.25 490.865H608.154L607.429 493.785H639.526ZM587.873 493.785L586.168 490.865H577.456L576.731 493.785H587.873ZM638.076 499.625L638.801 496.705H606.705L605.98 499.625H638.076ZM591.283 499.625L589.578 496.705H576.006L575.282 499.625H591.292H591.283ZM713.641 318.556L713.931 317.405L714.605 318.556H744.348L745.073 315.636H682.27L681.545 318.556H713.641ZM641.623 368.203L639.457 364.5L638.537 368.203L637.812 371.122H643.328L641.623 368.203ZM712.192 324.395L712.917 321.476H680.82L680.096 324.395H712.192ZM710.743 330.235L711.467 327.315H679.371L678.646 330.235H710.743ZM709.294 336.074L710.018 333.155H677.922L677.197 336.074H709.294ZM707.844 341.914L708.569 338.994H676.473L675.748 341.914H707.844ZM706.395 347.754L707.12 344.834H675.023L674.299 347.754H706.395ZM704.946 353.593L705.67 350.673H673.574L672.85 353.593H704.946ZM703.497 359.433L704.221 356.513H672.125L671.4 359.433H703.497ZM702.047 365.272L702.772 362.352H670.676L669.951 365.272H702.047ZM700.598 371.112L701.323 368.192H669.226L668.502 371.112H700.598ZM699.149 376.951L699.873 374.032H667.777L667.053 376.951H699.149ZM697.7 382.791L698.424 379.871H666.328L665.603 382.791H697.7ZM735.064 353.588L735.465 354.27L735.635 353.588L736.36 350.668H733.359L735.064 353.588ZM650.131 382.791L648.426 379.871H635.621L634.897 382.791H650.131ZM646.712 376.951L645.007 374.032H637.062L636.337 376.951H646.712ZM729.932 344.828L731.637 347.748H737.068L737.792 344.828H729.932ZM726.514 338.989L728.219 341.909H738.508L739.233 338.989H726.514ZM723.095 333.149L724.8 336.069H739.958L740.682 333.149H723.095ZM719.677 327.31L721.382 330.23H741.398L742.123 327.31H719.677ZM716.258 321.47L717.963 324.39H742.839L743.564 321.47H716.258ZM771.79 207.572L772.514 204.652H740.418L739.693 207.572H771.79ZM700.445 251.38L698.825 248.604L698.134 251.38L697.41 254.299H702.15L700.445 251.38ZM770.34 213.412L771.065 210.492H738.969L738.244 213.412H770.34ZM768.891 219.251L769.616 216.332H737.519L736.795 219.251H768.891ZM767.442 225.091L768.167 222.171H736.07L735.346 225.091H767.442ZM765.993 230.93L766.717 228.011H734.621L733.896 230.93H765.993ZM764.543 236.77L765.268 233.85H733.172L732.447 236.77H764.543ZM763.094 242.61L763.819 239.69H731.723L730.998 242.61H763.094ZM761.645 248.449L762.37 245.529H730.273L729.549 248.449H761.645ZM760.196 254.289L760.92 251.369H728.824L728.099 254.289H760.196ZM758.747 260.128L759.471 257.208H727.375L726.65 260.128H758.747ZM757.297 265.968L758.022 263.048H725.926L725.201 265.968H757.297ZM755.848 271.807L756.573 268.888H724.476L723.752 271.807H755.848ZM754.399 277.647L755.123 274.727H723.027L722.303 277.647H754.399ZM752.95 283.486L753.674 280.567H721.578L720.853 283.486H752.95ZM751.5 289.326L752.225 286.406H689.422L688.697 289.326H751.5ZM750.051 295.166L750.776 292.246H687.973L687.248 295.166H750.051ZM748.602 301.005L749.327 298.085H686.523L685.799 301.005H748.602ZM747.153 306.845L747.877 303.925H685.074L684.35 306.845H747.153ZM745.703 312.684L746.428 309.764H683.625L682.9 312.684H745.703ZM793.878 236.749L794.815 238.358L795.216 236.749L795.941 233.829H792.173L793.878 236.749ZM719.191 283.476L717.486 280.556H690.863L690.138 283.476H719.191ZM715.772 277.636L714.067 274.716H692.312L691.587 277.636H715.781H715.772ZM712.354 271.797L710.649 268.877H693.753L693.028 271.797H712.354ZM708.935 265.957L707.23 263.037H695.193L694.469 265.957H708.935ZM705.517 260.118L703.812 257.198H696.643L695.918 260.118H705.525H705.517ZM788.737 227.995L790.442 230.914H796.64L797.364 227.995H788.737ZM785.319 222.155L787.024 225.075H798.089L798.814 222.155H785.319ZM781.9 216.316L783.605 219.235H799.53L800.254 216.316H781.9ZM778.482 210.476L780.187 213.396H800.97L801.695 210.476H778.482ZM775.063 204.636L776.768 207.556H802.42L803.144 204.636H775.063ZM863.509 84.8936L864.234 81.9738H801.439L800.715 84.8936H863.509ZM759.25 134.54L758.167 132.692L757.707 134.54L756.982 137.46H760.954L759.25 134.54ZM831.362 90.7331L832.086 87.8133H799.99L799.265 90.7331H831.362ZM829.913 96.5727L830.637 93.6529H798.541L797.816 96.5727H829.913ZM828.463 102.412L829.188 99.4925H797.092L796.367 102.412H828.463ZM827.014 108.252L827.739 105.332H795.642L794.918 108.252H827.014ZM825.565 114.091L826.289 111.172H794.193L793.468 114.091H825.565ZM824.116 119.931L824.84 117.011H792.744L792.019 119.931H824.116ZM822.666 125.77L823.391 122.851H791.295L790.57 125.77H822.666ZM821.217 131.61L821.942 128.69H789.845L789.121 131.61H821.217ZM819.768 137.45L820.492 134.53H788.396L787.672 137.45H819.768ZM818.319 143.289L819.043 140.369H786.947L786.222 143.289H818.319ZM816.869 149.129L817.594 146.209H785.498L784.773 149.129H816.869ZM815.42 154.968L816.145 152.048H784.048L783.324 154.968H815.42ZM813.971 160.808L814.696 157.888H782.599L781.875 160.808H813.971ZM812.522 166.647L813.246 163.728H781.15L780.425 166.647H812.522ZM811.072 172.487L811.797 169.567H748.994L748.269 172.487H811.072ZM809.623 178.326L810.348 175.407H747.545L746.82 178.326H809.623ZM808.174 184.166L808.899 181.246H746.096L745.371 184.166H808.174ZM806.725 190.006L807.449 187.086H744.646L743.922 190.006H806.725ZM805.276 195.845L806 192.925H743.197L742.472 195.845H805.276ZM773.128 201.685L773.188 201.456L773.324 201.685H803.835L804.559 198.765H741.756L741.032 201.685H773.128ZM852.683 119.91L854.166 122.44L854.797 119.91L855.521 116.99H850.986L852.691 119.91H852.683ZM777.996 166.637L776.291 163.717H750.443L749.719 166.637H778.004H777.996ZM774.577 160.797L772.872 157.877H751.884L751.159 160.797H774.577ZM771.159 154.958L769.454 152.038H753.325L752.6 154.958H771.159ZM767.74 149.118L766.035 146.198H754.774L754.049 149.118H767.749H767.74ZM764.322 143.278L762.617 140.359H756.215L755.49 143.278H764.322ZM847.542 111.156L849.247 114.075H856.22L856.945 111.156H847.542ZM844.124 105.316L845.828 108.236H857.661L858.386 105.316H844.124ZM840.705 99.4765L842.41 102.396H859.102L859.826 99.4765H840.705ZM837.287 93.6369L838.992 96.5567H860.551L861.276 93.6369H837.287ZM833.868 87.7974L835.573 90.7171H861.992L862.716 87.7974H833.868ZM883.918 3.17173L884.642 0.251953H852.546L851.822 3.17173H883.918ZM882.469 9.01129L883.193 6.09151H851.097L850.372 9.01129H882.469ZM881.019 14.8508L881.744 11.9311H849.648L848.923 14.8508H881.019ZM879.57 20.6904L880.295 17.7706H848.198L847.474 20.6904H879.57ZM878.121 26.53L878.846 23.6102H846.749L846.025 26.53H878.121ZM876.672 32.3695L877.396 29.4497H845.3L844.575 32.3695H876.672ZM875.222 38.2091L875.947 35.2893H843.851L843.126 38.2091H875.222ZM873.773 44.0486L874.498 41.1289H842.402L841.677 44.0486H873.773ZM872.324 49.8882L873.049 46.9684H840.952L840.228 49.8882H872.324ZM870.875 55.7277L871.599 52.808H839.503L839.281 53.7191L838.753 52.808H808.813L808.089 55.7277H870.883H870.875ZM869.425 61.5673L870.15 58.6475H807.356L806.631 61.5673H869.425ZM867.976 67.4069L868.701 64.4871H805.906L805.182 67.4069H867.976ZM866.527 73.2464L867.252 70.3266H804.457L803.733 73.2464H866.527ZM865.078 79.086L865.802 76.1662H803.008L802.283 79.086H865.078ZM818.25 17.7546L817.713 16.8276L817.483 17.7546L816.759 20.6744H819.964L818.259 17.7546H818.25ZM837.031 49.8775L835.326 46.9578H810.246L809.521 49.8775H837.031ZM833.612 44.038L831.907 41.1182H811.686L810.962 44.038H833.612ZM830.194 38.1984L828.489 35.2786H813.135L812.411 38.1984H830.202H830.194ZM826.775 32.3589L825.07 29.4391H814.576L813.852 32.3589H826.775ZM823.357 26.5193L821.652 23.5995H816.017L815.292 26.5193H823.357Z" fill="#D19D33" fill-opacity="0.5"/>
<path fill-rule="evenodd" clip-rule="evenodd" d="M920.672 505.439L921.397 502.519H889.301L888.576 505.439H920.672ZM878.738 505.439L877.033 502.519H858.594L857.869 505.439H878.738ZM919.223 511.278L919.948 508.358H887.851L887.127 511.278H919.223ZM882.157 511.278L880.452 508.358H857.153L856.428 511.278H882.157ZM917.774 517.118L918.498 514.198H886.402L885.677 517.118H917.774ZM885.567 517.118L883.862 514.198H855.704L854.979 517.118H885.575H885.567ZM916.325 522.957L917.049 520.037H854.246L853.521 522.957H916.325ZM914.875 528.797L915.6 525.877H852.797L852.072 528.797H914.875ZM980.313 388.61L981.037 385.69H948.941L948.216 388.61H980.313ZM937.611 388.61L935.906 385.69H918.243L917.518 388.61H937.62H937.611ZM978.863 394.45L979.588 391.53H947.492L946.767 394.45H978.863ZM941.021 394.45L939.316 391.53H916.785L916.06 394.45H941.021ZM977.414 400.289L978.139 397.369H946.042L945.318 400.289H977.414ZM944.44 400.289L942.735 397.369H915.344L914.62 400.289H944.44ZM975.965 406.129L976.689 403.209H913.886L913.162 406.129H975.965ZM974.516 411.968L975.24 409.049H912.437L911.713 411.968H974.516ZM973.066 417.808L973.791 414.888H910.988L910.263 417.808H973.066ZM971.617 423.647L972.342 420.728H909.539L908.814 423.647H971.617ZM970.168 429.487L970.893 426.567H908.089L907.365 429.487H970.168ZM938.02 435.327L938.532 433.249L939.742 435.327H968.71L969.435 432.407H906.632L905.907 435.327H938.003H938.02ZM936.571 441.166L937.296 438.246H905.2L904.475 441.166H936.571ZM941.456 438.246L943.161 441.166H967.269L967.994 438.246H941.456ZM935.122 447.006L935.847 444.086H903.75L903.026 447.006H935.122ZM944.866 444.086L946.571 447.006H965.82L966.545 444.086H944.866ZM933.673 452.845L934.397 449.925H902.301L901.576 452.845H933.673ZM948.284 449.925L949.989 452.845H964.371L965.096 449.925H948.284ZM932.232 458.685L932.957 455.765H900.86L900.136 458.685H932.232ZM951.703 455.765L953.408 458.685H962.93L963.655 455.765H951.703ZM930.783 464.524L931.507 461.605H899.411L898.687 464.524H930.783ZM955.113 461.605L956.818 464.524H961.481L962.206 461.605H955.113ZM929.334 470.364L930.058 467.444H897.962L897.237 470.364H929.334ZM958.531 467.444L960.1 470.119L960.765 467.444H958.54H958.531ZM927.893 476.203L928.617 473.284H896.521L895.797 476.203H927.893ZM926.444 482.043L927.168 479.123H895.072L894.347 482.043H926.444ZM865.064 482.043L864.067 480.338L863.641 482.043H865.064ZM924.994 487.883L925.719 484.963H893.623L892.898 487.883H924.994ZM868.474 487.883L866.769 484.963H862.916L862.191 487.883H868.474ZM923.545 493.722L924.27 490.802H892.173L891.449 493.722H923.545ZM871.893 493.722L870.188 490.802H861.475L860.751 493.722H871.893ZM922.096 499.562L922.821 496.642H890.724L890 499.562H922.096ZM875.303 499.562L873.598 496.642H860.026L859.301 499.562H875.311H875.303ZM997.661 318.493L997.951 317.342L998.624 318.493H1028.37L1029.09 315.573H966.289L965.564 318.493H997.661ZM925.642 368.14L923.477 364.437L922.556 368.14L921.832 371.059H927.347L925.642 368.14ZM996.212 324.332L996.936 321.413H964.84L964.115 324.332H996.212ZM994.762 330.172L995.487 327.252H963.391L962.666 330.172H994.762ZM993.313 336.011L994.038 333.092H961.941L961.217 336.011H993.313ZM991.864 341.851L992.588 338.931H960.492L959.768 341.851H991.864ZM990.415 347.691L991.139 344.771H959.043L958.318 347.691H990.415ZM988.965 353.53L989.69 350.61H957.594L956.869 353.53H988.965ZM987.516 359.37L988.241 356.45H956.144L955.42 359.37H987.516ZM986.067 365.209L986.791 362.289H954.695L953.971 365.209H986.067ZM984.618 371.049L985.342 368.129H953.246L952.521 371.049H984.618ZM983.168 376.888L983.893 373.969H951.797L951.072 376.888H983.168ZM981.719 382.728L982.444 379.808H950.347L949.623 382.728H981.719ZM1019.08 353.525L1019.48 354.207L1019.66 353.525L1020.38 350.605H1017.38L1019.08 353.525ZM934.15 382.728L932.445 379.808H919.641L918.916 382.728H934.15ZM930.732 376.888L929.027 373.969H921.081L920.357 376.888H930.732ZM1013.95 344.765L1015.66 347.685H1021.09L1021.81 344.765H1013.95ZM1010.53 338.926L1012.24 341.846H1022.53L1023.25 338.926H1010.53ZM1007.11 333.086L1008.82 336.006H1023.98L1024.7 333.086H1007.11ZM1003.7 327.247L1005.4 330.167H1025.42L1026.14 327.247H1003.7ZM1000.28 321.407L1001.98 324.327H1026.86L1027.58 321.407H1000.28ZM1055.81 207.509L1056.53 204.589H1024.44L1023.71 207.509H1055.81ZM984.464 251.317L982.844 248.541L982.154 251.317L981.429 254.236H986.169L984.464 251.317ZM1054.36 213.349L1055.08 210.429H1022.99L1022.26 213.349H1054.36ZM1052.91 219.188L1053.64 216.269H1021.54L1020.81 219.188H1052.91ZM1051.46 225.028L1052.19 222.108H1020.09L1019.37 225.028H1051.46ZM1050.01 230.867L1050.74 227.948H1018.64L1017.92 230.867H1050.01ZM1048.56 236.707L1049.29 233.787H1017.19L1016.47 236.707H1048.56ZM1047.11 242.547L1047.84 239.627H1015.74L1015.02 242.547H1047.11ZM1045.66 248.386L1046.39 245.466H1014.29L1013.57 248.386H1045.66ZM1044.22 254.226L1044.94 251.306H1012.84L1012.12 254.226H1044.22ZM1042.77 260.065L1043.49 257.145H1011.39L1010.67 260.065H1042.77ZM1041.32 265.905L1042.04 262.985H1009.95L1009.22 265.905H1041.32ZM1039.87 271.744L1040.59 268.825H1008.5L1007.77 271.744H1039.87ZM1038.42 277.584L1039.14 274.664H1007.05L1006.32 277.584H1038.42ZM1036.97 283.423L1037.69 280.504H1005.6L1004.87 283.423H1036.97ZM1035.52 289.263L1036.24 286.343H973.441L972.717 289.263H1035.52ZM1034.07 295.103L1034.8 292.183H971.992L971.268 295.103H1034.07ZM1032.62 300.942L1033.35 298.022H970.543L969.818 300.942H1032.62ZM1031.17 306.782L1031.9 303.862H969.094L968.369 306.782H1031.17ZM1029.72 312.621L1030.45 309.701H967.645L966.92 312.621H1029.72ZM1077.9 236.686L1078.83 238.295L1079.24 236.686L1079.96 233.766H1076.19L1077.9 236.686ZM1003.21 283.413L1001.51 280.493H974.882L974.158 283.413H1003.21ZM999.792 277.573L998.087 274.654H976.331L975.607 277.573H999.8H999.792ZM996.373 271.734L994.669 268.814H977.772L977.047 271.734H996.373ZM992.955 265.894L991.25 262.974H979.213L978.488 265.894H992.955ZM989.537 260.055L987.832 257.135H980.662L979.937 260.055H989.545H989.537ZM1072.76 227.932L1074.46 230.851H1080.66L1081.38 227.932H1072.76ZM1069.34 222.092L1071.04 225.012H1082.11L1082.83 222.092H1069.34ZM1065.92 216.253L1067.62 219.172H1083.55L1084.27 216.253H1065.92ZM1062.5 210.413L1064.21 213.333H1084.99L1085.71 210.413H1062.5ZM1059.08 204.573L1060.79 207.493H1086.44L1087.16 204.573H1059.08ZM1147.53 84.8306L1148.25 81.9108H1085.46L1084.73 84.8306H1147.53ZM1043.27 134.477L1042.19 132.629L1041.73 134.477L1041 137.397H1044.97L1043.27 134.477ZM1115.38 90.6701L1116.11 87.7504H1084.01L1083.29 90.6701H1115.38ZM1113.93 96.5097L1114.66 93.5899H1082.56L1081.84 96.5097H1113.93ZM1112.48 102.349L1113.21 99.4295H1081.11L1080.39 102.349H1112.48ZM1111.03 108.189L1111.76 105.269H1079.66L1078.94 108.189H1111.03ZM1109.58 114.028L1110.31 111.109H1078.21L1077.49 114.028H1109.58ZM1108.14 119.868L1108.86 116.948H1076.76L1076.04 119.868H1108.14ZM1106.69 125.707L1107.41 122.788H1075.31L1074.59 125.707H1106.69ZM1105.24 131.547L1105.96 128.627H1073.86L1073.14 131.547H1105.24ZM1103.79 137.387L1104.51 134.467H1072.42L1071.69 137.387H1103.79ZM1102.34 143.226L1103.06 140.306H1070.97L1070.24 143.226H1102.34ZM1100.89 149.066L1101.61 146.146H1069.52L1068.79 149.066H1100.89ZM1099.44 154.905L1100.16 151.985H1068.07L1067.34 154.905H1099.44ZM1097.99 160.745L1098.72 157.825H1066.62L1065.89 160.745H1097.99ZM1096.54 166.584L1097.27 163.665H1065.17L1064.44 166.584H1096.54ZM1095.09 172.424L1095.82 169.504H1033.01L1032.29 172.424H1095.09ZM1093.64 178.264L1094.37 175.344H1031.56L1030.84 178.264H1093.64ZM1092.19 184.103L1092.92 181.183H1030.12L1029.39 184.103H1092.19ZM1090.74 189.943L1091.47 187.023H1028.67L1027.94 189.943H1090.74ZM1089.3 195.782L1090.02 192.862H1027.22L1026.49 195.782H1089.3ZM1057.15 201.622L1057.21 201.393L1057.34 201.622H1087.85L1088.58 198.702H1025.78L1025.05 201.622H1057.15ZM1136.7 119.847L1138.19 122.377L1138.82 119.847L1139.54 116.927H1135.01L1136.71 119.847H1136.7ZM1062.02 166.574L1060.31 163.654H1034.46L1033.74 166.574H1062.02H1062.02ZM1058.6 160.734L1056.89 157.814H1035.9L1035.18 160.734H1058.6ZM1055.18 154.895L1053.47 151.975H1037.34L1036.62 154.895H1055.18ZM1051.76 149.055L1050.05 146.135H1038.79L1038.07 149.055H1051.77H1051.76ZM1048.34 143.215L1046.64 140.296H1040.23L1039.51 143.215H1048.34ZM1131.56 111.093L1133.27 114.012H1140.24L1140.96 111.093H1131.56ZM1128.14 105.253L1129.85 108.173H1141.68L1142.41 105.253H1128.14ZM1124.72 99.4135L1126.43 102.333H1143.12L1143.85 99.4135H1124.72ZM1121.31 93.5739L1123.01 96.4937H1144.57L1145.3 93.5739H1121.31ZM1117.89 87.7344L1119.59 90.6542H1146.01L1146.74 87.7344H1117.89ZM1167.94 3.10874L1168.66 0.188965H1136.57L1135.84 3.10874H1167.94ZM1166.49 8.9483L1167.21 6.02852H1135.12L1134.39 8.9483H1166.49ZM1165.04 14.7879L1165.76 11.8681H1133.67L1132.94 14.7879H1165.04ZM1163.59 20.6274L1164.31 17.7076H1132.22L1131.49 20.6274H1163.59ZM1162.14 26.467L1162.87 23.5472H1130.77L1130.04 26.467H1162.14ZM1160.69 32.3065L1161.42 29.3868H1129.32L1128.59 32.3065H1160.69ZM1159.24 38.1461L1159.97 35.2263H1127.87L1127.15 38.1461H1159.24ZM1157.79 43.9856L1158.52 41.0659H1126.42L1125.7 43.9856H1157.79ZM1156.34 49.8252L1157.07 46.9054H1124.97L1124.25 49.8252H1156.34ZM1154.89 55.6648L1155.62 52.745H1123.52L1123.3 53.6561L1122.77 52.745H1092.83L1092.11 55.6648H1154.9H1154.89ZM1153.44 61.5043L1154.17 58.5845H1091.38L1090.65 61.5043H1153.44ZM1152 67.3439L1152.72 64.4241H1089.93L1089.2 67.3439H1152ZM1150.55 73.1834L1151.27 70.2637H1088.48L1087.75 73.1834H1150.55ZM1149.1 79.023L1149.82 76.1032H1087.03L1086.3 79.023H1149.1ZM1102.27 17.6917L1101.73 16.7646L1101.5 17.6917L1100.78 20.6114H1103.98L1102.28 17.6917H1102.27ZM1121.05 49.8145L1119.35 46.8948H1094.27L1093.54 49.8145H1121.05ZM1117.63 43.975L1115.93 41.0552H1095.71L1094.98 43.975H1117.63ZM1114.21 38.1354L1112.51 35.2157H1097.15L1096.43 38.1354H1114.22H1114.21ZM1110.79 32.2959L1109.09 29.3761H1098.6L1097.87 32.2959H1110.79ZM1107.38 26.4563L1105.67 23.5365H1100.04L1099.31 26.4563H1107.38Z" fill="#D19D33" fill-opacity="0.5"/>
<path fill-rule="evenodd" clip-rule="evenodd" d="M1204.69 505.376L1205.42 502.456H1173.32L1172.6 505.376H1204.69ZM1162.76 505.376L1161.05 502.456H1142.61L1141.89 505.376H1162.76ZM1203.24 511.215L1203.97 508.295H1171.87L1171.15 511.215H1203.24ZM1166.18 511.215L1164.47 508.295H1141.17L1140.45 511.215H1166.18ZM1201.79 517.055L1202.52 514.135H1170.42L1169.7 517.055H1201.79ZM1169.59 517.055L1167.88 514.135H1139.72L1139 517.055H1169.59H1169.59ZM1200.34 522.894L1201.07 519.974H1138.27L1137.54 522.894H1200.34ZM1198.89 528.734L1199.62 525.814H1136.82L1136.09 528.734H1198.89ZM1264.33 388.547L1265.06 385.627H1232.96L1232.24 388.547H1264.33ZM1221.63 388.547L1219.93 385.627H1202.26L1201.54 388.547H1221.64H1221.63ZM1262.88 394.387L1263.61 391.467H1231.51L1230.79 394.387H1262.88ZM1225.04 394.387L1223.34 391.467H1200.8L1200.08 394.387H1225.04ZM1261.43 400.226L1262.16 397.306H1230.06L1229.34 400.226H1261.43ZM1228.46 400.226L1226.75 397.306H1199.36L1198.64 400.226H1228.46ZM1259.98 406.066L1260.71 403.146H1197.91L1197.18 406.066H1259.98ZM1258.54 411.905L1259.26 408.986H1196.46L1195.73 411.905H1258.54ZM1257.09 417.745L1257.81 414.825H1195.01L1194.28 417.745H1257.09ZM1255.64 423.584L1256.36 420.665H1193.56L1192.83 423.584H1255.64ZM1254.19 429.424L1254.91 426.504H1192.11L1191.38 429.424H1254.19ZM1222.04 435.264L1222.55 433.186L1223.76 435.264H1252.73L1253.45 432.344H1190.65L1189.93 435.264H1222.02H1222.04ZM1220.59 441.103L1221.32 438.183H1189.22L1188.49 441.103H1220.59ZM1225.48 438.183L1227.18 441.103H1251.29L1252.01 438.183H1225.48ZM1219.14 446.943L1219.87 444.023H1187.77L1187.05 446.943H1219.14ZM1228.89 444.023L1230.59 446.943H1249.84L1250.56 444.023H1228.89ZM1217.69 452.782L1218.42 449.862H1186.32L1185.6 452.782H1217.69ZM1232.3 449.862L1234.01 452.782H1248.39L1249.12 449.862H1232.3ZM1216.25 458.622L1216.98 455.702H1184.88L1184.16 458.622H1216.25ZM1235.72 455.702L1237.43 458.622H1246.95L1247.67 455.702H1235.72ZM1214.8 464.461L1215.53 461.542H1183.43L1182.71 464.461H1214.8ZM1239.13 461.542L1240.84 464.461H1245.5L1246.23 461.542H1239.13ZM1213.35 470.301L1214.08 467.381H1181.98L1181.26 470.301H1213.35ZM1242.55 467.381L1244.12 470.056L1244.78 467.381H1242.56H1242.55ZM1211.91 476.14L1212.64 473.221H1180.54L1179.82 476.14H1211.91ZM1210.46 481.98L1211.19 479.06H1179.09L1178.37 481.98H1210.46ZM1149.08 481.98L1148.09 480.275L1147.66 481.98H1149.08ZM1209.01 487.82L1209.74 484.9H1177.64L1176.92 487.82H1209.01ZM1152.49 487.82L1150.79 484.9H1146.94L1146.21 487.82H1152.49ZM1207.56 493.659L1208.29 490.739H1176.19L1175.47 493.659H1207.56ZM1155.91 493.659L1154.21 490.739H1145.49L1144.77 493.659H1155.91ZM1206.12 499.499L1206.84 496.579H1174.74L1174.02 499.499H1206.12ZM1159.32 499.499L1157.62 496.579H1144.05L1143.32 499.499H1159.33H1159.32ZM1281.68 318.43L1281.97 317.279L1282.64 318.43H1312.39L1313.11 315.51H1250.31L1249.58 318.43H1281.68ZM1209.66 368.077L1207.5 364.374L1206.58 368.077L1205.85 370.996H1211.37L1209.66 368.077ZM1280.23 324.269L1280.96 321.35H1248.86L1248.13 324.269H1280.23ZM1278.78 330.109L1279.51 327.189H1247.41L1246.69 330.109H1278.78ZM1277.33 335.948L1278.06 333.029H1245.96L1245.24 335.948H1277.33ZM1275.88 341.788L1276.61 338.868H1244.51L1243.79 341.788H1275.88ZM1274.43 347.628L1275.16 344.708H1243.06L1242.34 347.628H1274.43ZM1272.98 353.467L1273.71 350.547H1241.61L1240.89 353.467H1272.98ZM1271.54 359.307L1272.26 356.387H1240.16L1239.44 359.307H1271.54ZM1270.09 365.146L1270.81 362.226H1238.71L1237.99 365.146H1270.09ZM1268.64 370.986L1269.36 368.066H1237.27L1236.54 370.986H1268.64ZM1267.19 376.825L1267.91 373.906H1235.82L1235.09 376.825H1267.19ZM1265.74 382.665L1266.46 379.745H1234.37L1233.64 382.665H1265.74ZM1303.1 353.462L1303.5 354.144L1303.67 353.462L1304.4 350.542H1301.4L1303.1 353.462ZM1218.17 382.665L1216.46 379.745H1203.66L1202.94 382.665H1218.17ZM1214.75 376.825L1213.05 373.906H1205.1L1204.38 376.825H1214.75ZM1297.97 344.702L1299.68 347.622H1305.11L1305.83 344.702H1297.97ZM1294.55 338.863L1296.26 341.783H1306.55L1307.27 338.863H1294.55ZM1291.13 333.023L1292.84 335.943H1308L1308.72 333.023H1291.13ZM1287.72 327.184L1289.42 330.104H1309.44L1310.16 327.184H1287.72ZM1284.3 321.344L1286 324.264H1310.88L1311.6 321.344H1284.3ZM1339.83 207.446L1340.55 204.526H1308.46L1307.73 207.446H1339.83ZM1268.48 251.254L1266.86 248.478L1266.17 251.254L1265.45 254.173H1270.19L1268.48 251.254ZM1338.38 213.286L1339.1 210.366H1307.01L1306.28 213.286H1338.38ZM1336.93 219.125L1337.65 216.206H1305.56L1304.83 219.125H1336.93ZM1335.48 224.965L1336.21 222.045H1304.11L1303.38 224.965H1335.48ZM1334.03 230.804L1334.76 227.885H1302.66L1301.94 230.804H1334.03ZM1332.58 236.644L1333.31 233.724H1301.21L1300.49 236.644H1332.58ZM1331.13 242.484L1331.86 239.564H1299.76L1299.04 242.484H1331.13ZM1329.68 248.323L1330.41 245.403H1298.31L1297.59 248.323H1329.68ZM1328.23 254.163L1328.96 251.243H1296.86L1296.14 254.163H1328.23ZM1326.79 260.002L1327.51 257.082H1295.41L1294.69 260.002H1326.79ZM1325.34 265.842L1326.06 262.922H1293.96L1293.24 265.842H1325.34ZM1323.89 271.681L1324.61 268.762H1292.52L1291.79 271.681H1323.89ZM1322.44 277.521L1323.16 274.601H1291.07L1290.34 277.521H1322.44ZM1320.99 283.361L1321.71 280.441H1289.62L1288.89 283.361H1320.99ZM1319.54 289.2L1320.26 286.28H1257.46L1256.74 289.2H1319.54ZM1318.09 295.04L1318.81 292.12H1256.01L1255.29 295.04H1318.09ZM1316.64 300.879L1317.37 297.959H1254.56L1253.84 300.879H1316.64ZM1315.19 306.719L1315.92 303.799H1253.11L1252.39 306.719H1315.19ZM1313.74 312.558L1314.47 309.638H1251.66L1250.94 312.558H1313.74ZM1361.92 236.623L1362.85 238.232L1363.26 236.623L1363.98 233.703H1360.21L1361.92 236.623ZM1287.23 283.35L1285.53 280.43H1258.9L1258.18 283.35H1287.23ZM1283.81 277.51L1282.11 274.591H1260.35L1259.63 277.51H1283.82H1283.81ZM1280.39 271.671L1278.69 268.751H1261.79L1261.07 271.671H1280.39ZM1276.97 265.831L1275.27 262.911H1263.23L1262.51 265.831H1276.97ZM1273.56 259.992L1271.85 257.072H1264.68L1263.96 259.992H1273.56H1273.56ZM1356.78 227.869L1358.48 230.788H1364.68L1365.4 227.869H1356.78ZM1353.36 222.029L1355.06 224.949H1366.13L1366.85 222.029H1353.36ZM1349.94 216.19L1351.64 219.109H1367.57L1368.29 216.19H1349.94ZM1346.52 210.35L1348.23 213.27H1369.01L1369.73 210.35H1346.52ZM1343.1 204.51L1344.81 207.43H1370.46L1371.18 204.51H1343.1ZM1431.55 84.7676L1432.27 81.8478H1369.48L1368.75 84.7676H1431.55ZM1327.29 134.414L1326.21 132.566L1325.75 134.414L1325.02 137.334H1328.99L1327.29 134.414ZM1399.4 90.6072L1400.13 87.6874H1368.03L1367.3 90.6072H1399.4ZM1397.95 96.4467L1398.68 93.5269H1366.58L1365.86 96.4467H1397.95ZM1396.5 102.286L1397.23 99.3665H1365.13L1364.41 102.286H1396.5ZM1395.05 108.126L1395.78 105.206H1363.68L1362.96 108.126H1395.05ZM1393.6 113.965L1394.33 111.046H1362.23L1361.51 113.965H1393.6ZM1392.15 119.805L1392.88 116.885H1360.78L1360.06 119.805H1392.15ZM1390.71 125.644L1391.43 122.725H1359.33L1358.61 125.644H1390.71ZM1389.26 131.484L1389.98 128.564H1357.88L1357.16 131.484H1389.26ZM1387.81 137.324L1388.53 134.404H1356.44L1355.71 137.324H1387.81ZM1386.36 143.163L1387.08 140.243H1354.99L1354.26 143.163H1386.36ZM1384.91 149.003L1385.63 146.083H1353.54L1352.81 149.003H1384.91ZM1383.46 154.842L1384.18 151.923H1352.09L1351.36 154.842H1383.46ZM1382.01 160.682L1382.73 157.762H1350.64L1349.91 160.682H1382.01ZM1380.56 166.521L1381.29 163.602H1349.19L1348.46 166.521H1380.56ZM1379.11 172.361L1379.84 169.441H1317.03L1316.31 172.361H1379.11ZM1377.66 178.201L1378.39 175.281H1315.58L1314.86 178.201H1377.66ZM1376.21 184.04L1376.94 181.12H1314.13L1313.41 184.04H1376.21ZM1374.76 189.88L1375.49 186.96H1312.69L1311.96 189.88H1374.76ZM1373.31 195.719L1374.04 192.799H1311.24L1310.51 195.719H1373.31ZM1341.17 201.559L1341.23 201.33L1341.36 201.559H1371.87L1372.6 198.639H1309.8L1309.07 201.559H1341.17ZM1420.72 119.784L1422.2 122.314L1422.84 119.784L1423.56 116.864H1419.03L1420.73 119.784H1420.72ZM1346.03 166.511L1344.33 163.591H1318.48L1317.76 166.511H1346.04H1346.03ZM1342.62 160.671L1340.91 157.751H1319.92L1319.2 160.671H1342.62ZM1339.2 154.832L1337.49 151.912H1321.36L1320.64 154.832H1339.2ZM1335.78 148.992L1334.07 146.072H1322.81L1322.09 148.992H1335.79H1335.78ZM1332.36 143.153L1330.66 140.233H1324.25L1323.53 143.153H1332.36ZM1415.58 111.03L1417.29 113.949H1424.26L1424.98 111.03H1415.58ZM1412.16 105.19L1413.87 108.11H1425.7L1426.42 105.19H1412.16ZM1408.74 99.3505L1410.45 102.27H1427.14L1427.87 99.3505H1408.74ZM1405.33 93.5109L1407.03 96.4307H1428.59L1429.31 93.5109H1405.33ZM1401.91 87.6714L1403.61 90.5912H1430.03L1430.76 87.6714H1401.91ZM1451.96 3.04576L1452.68 0.125977H1420.59L1419.86 3.04576H1451.96ZM1450.51 8.88531L1451.23 5.96553H1419.14L1418.41 8.88531H1450.51ZM1449.06 14.7249L1449.78 11.8051H1417.69L1416.96 14.7249H1449.06ZM1447.61 20.5644L1448.33 17.6446H1416.24L1415.51 20.5644H1447.61ZM1446.16 26.404L1446.88 23.4842H1414.79L1414.06 26.404H1446.16ZM1444.71 32.2435L1445.44 29.3238H1413.34L1412.61 32.2435H1444.71ZM1443.26 38.0831L1443.99 35.1633H1411.89L1411.17 38.0831H1443.26ZM1441.81 43.9227L1442.54 41.0029H1410.44L1409.72 43.9227H1441.81ZM1440.36 49.7622L1441.09 46.8424H1408.99L1408.27 49.7622H1440.36ZM1438.91 55.6018L1439.64 52.682H1407.54L1407.32 53.5931L1406.79 52.682H1376.85L1376.13 55.6018H1438.92H1438.91ZM1437.46 61.4413L1438.19 58.5215H1375.39L1374.67 61.4413H1437.46ZM1436.02 67.2809L1436.74 64.3611H1373.95L1373.22 67.2809H1436.02ZM1434.57 73.1204L1435.29 70.2007H1372.5L1371.77 73.1204H1434.57ZM1433.12 78.96L1433.84 76.0402H1371.05L1370.32 78.96H1433.12ZM1386.29 17.6287L1385.75 16.7016L1385.52 17.6287L1384.8 20.5484H1388L1386.3 17.6287H1386.29ZM1405.07 49.7516L1403.36 46.8318H1378.28L1377.56 49.7516H1405.07ZM1401.65 43.912L1399.95 40.9922H1379.73L1379 43.912H1401.65ZM1398.23 38.0724L1396.53 35.1527H1381.17L1380.45 38.0724H1398.24H1398.23ZM1394.81 32.2329L1393.11 29.3131H1382.62L1381.89 32.2329H1394.81ZM1391.4 26.3933L1389.69 23.4736H1384.06L1383.33 26.3933H1391.4Z" fill="#D19D33" fill-opacity="0.5"/>
<path fill-rule="evenodd" clip-rule="evenodd" d="M1488.72 505.313L1489.45 502.393H1457.35L1456.63 505.313H1488.72ZM1446.79 505.313L1445.09 502.393H1426.65L1425.92 505.313H1446.79ZM1487.28 511.152L1488 508.232H1455.9L1455.18 511.152H1487.28ZM1450.21 511.152L1448.5 508.232H1425.21L1424.48 511.152H1450.21ZM1485.83 516.992L1486.55 514.072H1454.45L1453.73 516.992H1485.83ZM1453.62 516.992L1451.91 514.072H1423.76L1423.03 516.992H1453.63H1453.62ZM1484.38 522.831L1485.1 519.911H1422.3L1421.57 522.831H1484.38ZM1482.93 528.671L1483.65 525.751H1420.85L1420.12 528.671H1482.93ZM1548.37 388.484L1549.09 385.564H1516.99L1516.27 388.484H1548.37ZM1505.66 388.484L1503.96 385.564H1486.3L1485.57 388.484H1505.67H1505.66ZM1546.92 394.324L1547.64 391.404H1515.54L1514.82 394.324H1546.92ZM1509.07 394.324L1507.37 391.404H1484.84L1484.11 394.324H1509.07ZM1545.47 400.163L1546.19 397.243H1514.1L1513.37 400.163H1545.47ZM1512.49 400.163L1510.79 397.243H1483.4L1482.67 400.163H1512.49ZM1544.02 406.003L1544.74 403.083H1481.94L1481.21 406.003H1544.02ZM1542.57 411.842L1543.29 408.923H1480.49L1479.77 411.842H1542.57ZM1541.12 417.682L1541.84 414.762H1479.04L1478.32 417.682H1541.12ZM1539.67 423.521L1540.39 420.602H1477.59L1476.87 423.521H1539.67ZM1538.22 429.361L1538.95 426.441H1476.14L1475.42 429.361H1538.22ZM1506.07 435.201L1506.58 433.123L1507.8 435.201H1536.76L1537.49 432.281H1474.68L1473.96 435.201H1506.06H1506.07ZM1504.62 441.04L1505.35 438.12H1473.25L1472.53 441.04H1504.62ZM1509.51 438.12L1511.21 441.04H1535.32L1536.05 438.12H1509.51ZM1503.17 446.88L1503.9 443.96H1471.8L1471.08 446.88H1503.17ZM1512.92 443.96L1514.62 446.88H1533.87L1534.6 443.96H1512.92ZM1501.73 452.719L1502.45 449.799H1470.35L1469.63 452.719H1501.73ZM1516.34 449.799L1518.04 452.719H1532.42L1533.15 449.799H1516.34ZM1500.28 458.559L1501.01 455.639H1468.91L1468.19 458.559H1500.28ZM1519.76 455.639L1521.46 458.559H1530.98L1531.71 455.639H1519.76ZM1498.84 464.398L1499.56 461.479H1467.46L1466.74 464.398H1498.84ZM1523.17 461.479L1524.87 464.398H1529.53L1530.26 461.479H1523.17ZM1497.39 470.238L1498.11 467.318H1466.01L1465.29 470.238H1497.39ZM1526.58 467.318L1528.15 469.993L1528.82 467.318H1526.59H1526.58ZM1495.95 476.077L1496.67 473.158H1464.57L1463.85 476.077H1495.95ZM1494.5 481.917L1495.22 478.997H1463.12L1462.4 481.917H1494.5ZM1433.12 481.917L1432.12 480.212L1431.69 481.917H1433.12ZM1493.05 487.757L1493.77 484.837H1461.68L1460.95 487.757H1493.05ZM1436.53 487.757L1434.82 484.837H1430.97L1430.24 487.757H1436.53ZM1491.6 493.596L1492.32 490.676H1460.23L1459.5 493.596H1491.6ZM1439.95 493.596L1438.24 490.676H1429.53L1428.8 493.596H1439.95ZM1490.15 499.436L1490.87 496.516H1458.78L1458.05 499.436H1490.15ZM1443.36 499.436L1441.65 496.516H1428.08L1427.35 499.436H1443.36H1443.36ZM1565.71 318.367L1566 317.216L1566.68 318.367H1596.42L1597.14 315.447H1534.34L1533.62 318.367H1565.71ZM1493.7 368.014L1491.53 364.311L1490.61 368.014L1489.88 370.934H1495.4L1493.7 368.014ZM1564.26 324.206L1564.99 321.287H1532.89L1532.17 324.206H1564.26ZM1562.82 330.046L1563.54 327.126H1531.44L1530.72 330.046H1562.82ZM1561.37 335.885L1562.09 332.966H1529.99L1529.27 335.885H1561.37ZM1559.92 341.725L1560.64 338.805H1528.54L1527.82 341.725H1559.92ZM1558.47 347.565L1559.19 344.645H1527.1L1526.37 347.565H1558.47ZM1557.02 353.404L1557.74 350.484H1525.65L1524.92 353.404H1557.02ZM1555.57 359.244L1556.29 356.324H1524.2L1523.47 359.244H1555.57ZM1554.12 365.083L1554.84 362.163H1522.75L1522.02 365.083H1554.12ZM1552.67 370.923L1553.39 368.003H1521.3L1520.57 370.923H1552.67ZM1551.22 376.762L1551.95 373.843H1519.85L1519.12 376.762H1551.22ZM1549.77 382.602L1550.5 379.682H1518.4L1517.68 382.602H1549.77ZM1587.14 353.399L1587.54 354.081L1587.71 353.399L1588.43 350.479H1585.43L1587.14 353.399ZM1502.2 382.602L1500.5 379.682H1487.69L1486.97 382.602H1502.2ZM1498.78 376.762L1497.08 373.843H1489.13L1488.41 376.762H1498.78ZM1582 344.639L1583.71 347.559H1589.14L1589.86 344.639H1582ZM1578.59 338.8L1580.29 341.72H1590.58L1591.31 338.8H1578.59ZM1575.17 332.96L1576.87 335.88H1592.03L1592.75 332.96H1575.17ZM1571.75 327.121L1573.45 330.041H1593.47L1594.2 327.121H1571.75ZM1568.33 321.281L1570.04 324.201H1594.91L1595.64 321.281H1568.33ZM1623.86 207.383L1624.59 204.463H1592.49L1591.77 207.383H1623.86ZM1552.52 251.191L1550.9 248.415L1550.21 251.191L1549.48 254.11H1554.22L1552.52 251.191ZM1622.41 213.223L1623.14 210.303H1591.04L1590.32 213.223H1622.41ZM1620.96 219.062L1621.69 216.143H1589.59L1588.87 219.062H1620.96ZM1619.51 224.902L1620.24 221.982H1588.14L1587.42 224.902H1619.51ZM1618.06 230.742L1618.79 227.822H1586.69L1585.97 230.742H1618.06ZM1616.62 236.581L1617.34 233.661H1585.24L1584.52 236.581H1616.62ZM1615.17 242.421L1615.89 239.501H1583.79L1583.07 242.421H1615.17ZM1613.72 248.26L1614.44 245.34H1582.35L1581.62 248.26H1613.72ZM1612.27 254.1L1612.99 251.18H1580.9L1580.17 254.1H1612.27ZM1610.82 259.939L1611.54 257.02H1579.45L1578.72 259.939H1610.82ZM1609.37 265.779L1610.09 262.859H1578L1577.27 265.779H1609.37ZM1607.92 271.618L1608.64 268.699H1576.55L1575.82 271.618H1607.92ZM1606.47 277.458L1607.2 274.538H1575.1L1574.37 277.458H1606.47ZM1605.02 283.298L1605.75 280.378H1573.65L1572.93 283.298H1605.02ZM1603.57 289.137L1604.3 286.217H1541.49L1540.77 289.137H1603.57ZM1602.12 294.977L1602.85 292.057H1540.04L1539.32 294.977H1602.12ZM1600.67 300.816L1601.4 297.896H1538.6L1537.87 300.816H1600.67ZM1599.22 306.656L1599.95 303.736H1537.15L1536.42 306.656H1599.22ZM1597.78 312.495L1598.5 309.576H1535.7L1534.97 312.495H1597.78ZM1645.95 236.56L1646.89 238.169L1647.29 236.56L1648.01 233.64H1644.25L1645.95 236.56ZM1571.26 283.287L1569.56 280.367H1542.93L1542.21 283.287H1571.26ZM1567.84 277.447L1566.14 274.528H1544.38L1543.66 277.447H1567.85H1567.84ZM1564.43 271.608L1562.72 268.688H1545.82L1545.1 271.608H1564.43ZM1561.01 265.768L1559.3 262.848H1547.27L1546.54 265.768H1561.01ZM1557.59 259.929L1555.88 257.009H1548.71L1547.99 259.929H1557.6H1557.59ZM1640.81 227.806L1642.51 230.726H1648.71L1649.44 227.806H1640.81ZM1637.39 221.966L1639.1 224.886H1650.16L1650.89 221.966H1637.39ZM1633.97 216.127L1635.68 219.046H1651.6L1652.33 216.127H1633.97ZM1630.55 210.287L1632.26 213.207H1653.04L1653.77 210.287H1630.55ZM1627.14 204.448L1628.84 207.367H1654.49L1655.22 204.448H1627.14ZM1715.58 84.7046L1716.31 81.7848H1653.51L1652.79 84.7046H1715.58ZM1611.32 134.352L1610.24 132.503L1609.78 134.352L1609.05 137.271H1613.03L1611.32 134.352ZM1683.43 90.5442L1684.16 87.6244H1652.06L1651.34 90.5442H1683.43ZM1681.98 96.3837L1682.71 93.4639H1650.61L1649.89 96.3837H1681.98ZM1680.54 102.223L1681.26 99.3035H1649.16L1648.44 102.223H1680.54ZM1679.09 108.063L1679.81 105.143H1647.71L1646.99 108.063H1679.09ZM1677.64 113.902L1678.36 110.983H1646.27L1645.54 113.902H1677.64ZM1676.19 119.742L1676.91 116.822H1644.82L1644.09 119.742H1676.19ZM1674.74 125.582L1675.46 122.662H1643.37L1642.64 125.582H1674.74ZM1673.29 131.421L1674.01 128.501H1641.92L1641.19 131.421H1673.29ZM1671.84 137.261L1672.56 134.341H1640.47L1639.74 137.261H1671.84ZM1670.39 143.1L1671.12 140.18H1639.02L1638.29 143.1H1670.39ZM1668.94 148.94L1669.67 146.02H1637.57L1636.85 148.94H1668.94ZM1667.49 154.779L1668.22 151.86H1636.12L1635.4 154.779H1667.49ZM1666.04 160.619L1666.77 157.699H1634.67L1633.95 160.619H1666.04ZM1664.59 166.458L1665.32 163.539H1633.22L1632.5 166.458H1664.59ZM1663.14 172.298L1663.87 169.378H1601.07L1600.34 172.298H1663.14ZM1661.7 178.138L1662.42 175.218H1599.62L1598.89 178.138H1661.7ZM1660.25 183.977L1660.97 181.057H1598.17L1597.44 183.977H1660.25ZM1658.8 189.817L1659.52 186.897H1596.72L1595.99 189.817H1658.8ZM1657.35 195.656L1658.07 192.736H1595.27L1594.54 195.656H1657.35ZM1625.2 201.496L1625.26 201.267L1625.4 201.496H1655.91L1656.63 198.576H1593.83L1593.1 201.496H1625.2ZM1704.75 119.721L1706.24 122.251L1706.87 119.721L1707.59 116.801H1703.06L1704.76 119.721H1704.75ZM1630.07 166.448L1628.36 163.528H1602.52L1601.79 166.448H1630.08H1630.07ZM1626.65 160.608L1624.94 157.688H1603.96L1603.23 160.608H1626.65ZM1623.23 154.769L1621.53 151.849H1605.4L1604.67 154.769H1623.23ZM1619.81 148.929L1618.11 146.009H1606.85L1606.12 148.929H1619.82H1619.81ZM1616.39 143.09L1614.69 140.17H1608.29L1607.56 143.09H1616.39ZM1699.61 110.967L1701.32 113.886H1708.29L1709.02 110.967H1699.61ZM1696.2 105.127L1697.9 108.047H1709.73L1710.46 105.127H1696.2ZM1692.78 99.2875L1694.48 102.207H1711.17L1711.9 99.2875H1692.78ZM1689.36 93.448L1691.06 96.3677H1712.62L1713.35 93.448H1689.36ZM1685.94 87.6084L1687.65 90.5282H1714.06L1714.79 87.6084H1685.94ZM1735.99 2.98277L1736.71 0.0629883H1704.62L1703.89 2.98277H1735.99ZM1734.54 8.82232L1735.27 5.90255H1703.17L1702.44 8.82232H1734.54ZM1733.09 14.6619L1733.82 11.7421H1701.72L1701 14.6619H1733.09ZM1731.64 20.5014L1732.37 17.5817H1700.27L1699.55 20.5014H1731.64ZM1730.19 26.341L1730.92 23.4212H1698.82L1698.1 26.341H1730.19ZM1728.74 32.1806L1729.47 29.2608H1697.37L1696.65 32.1806H1728.74ZM1727.29 38.0201L1728.02 35.1003H1695.92L1695.2 38.0201H1727.29ZM1725.85 43.8597L1726.57 40.9399H1694.47L1693.75 43.8597H1725.85ZM1724.4 49.6992L1725.12 46.7794H1693.02L1692.3 49.6992H1724.4ZM1722.95 55.5388L1723.67 52.619H1691.58L1691.35 53.5301L1690.83 52.619H1660.89L1660.16 55.5388H1722.96H1722.95ZM1721.5 61.3783L1722.22 58.4586H1659.43L1658.7 61.3783H1721.5ZM1720.05 67.2179L1720.77 64.2981H1657.98L1657.25 67.2179H1720.05ZM1718.6 73.0575L1719.32 70.1377H1656.53L1655.8 73.0575H1718.6ZM1717.15 78.897L1717.87 75.9772H1655.08L1654.36 78.897H1717.15ZM1670.32 17.5657L1669.79 16.6386L1669.56 17.5657L1668.83 20.4855H1672.04L1670.33 17.5657H1670.32ZM1689.1 49.6886L1687.4 46.7688H1662.32L1661.59 49.6886H1689.1ZM1685.68 43.849L1683.98 40.9292H1663.76L1663.03 43.849H1685.68ZM1682.27 38.0095L1680.56 35.0897H1665.21L1664.48 38.0095H1682.27H1682.27ZM1678.85 32.1699L1677.14 29.2501H1666.65L1665.92 32.1699H1678.85ZM1675.43 26.3303L1673.72 23.4106H1668.09L1667.36 26.3303H1675.43Z" fill="#D19D33" fill-opacity="0.5"/>
</svg>
